<svg version="1.1" viewBox="0.0 0.0 960.0 720.0" fill="none" stroke="none" stroke-linecap="square" stroke-miterlimit="10" xmlns:xlink="http://www.w3.org/1999/xlink" xmlns="http://www.w3.org/2000/svg"><clipPath id="g8dbbb7df18_0_0.0"><path d="m0 0l960.0 0l0 720.0l-960.0 0l0 -720.0z" clip-rule="nonzero"/></clipPath><g clip-path="url(#g8dbbb7df18_0_0.0)"><defs><radialGradient id="g8dbbb7df18_0_0.1" gradientUnits="userSpaceOnUse" gradientTransform="matrix(24.49489742783178 0.0 0.0 24.49489742783178 0.0 0.0)" spreadMethod="pad" cx="19.595917942265427" cy="14.696938456699069" fx="19.595917942265427" fy="14.696938456699069" r="24.494897842407227"><stop offset="0.0" stop-color="#ffffff"/><stop offset="1.0" stop-color="#ebebeb"/></radialGradient></defs><path fill="url(#g8dbbb7df18_0_0.1)" d="m0 0l960.0 0l0 720.0l-960.0 0z" fill-rule="evenodd"/><path shape-rendering="crispEdges" fill="#b7b7b7" d="m0 0l160.0 0l0 118.73491l-160.0 0l0 -118.73491z" fill-rule="nonzero"/><path shape-rendering="crispEdges" fill="#b7b7b7" d="m160.0 0l217.5328 0l0 118.73491l-217.5328 0l0 -118.73491z" fill-rule="nonzero"/><path shape-rendering="crispEdges" fill="#b7b7b7" d="m377.5328 0l582.46716 0l0 118.73491l-582.46716 0l0 -118.73491z" fill-rule="nonzero"/><path shape-rendering="crispEdges" fill="#b7b7b7" d="m0 118.73491l160.0 0l0 118.73491l-160.0 0l0 -118.73491z" fill-rule="nonzero"/><path shape-rendering="crispEdges" fill="#b7b7b7" d="m160.0 118.73491l217.5328 0l0 118.73491l-217.5328 0l0 -118.73491z" fill-rule="nonzero"/><path shape-rendering="crispEdges" fill="#b7b7b7" d="m377.5328 118.73491l145.61679 0l0 118.73491l-145.61679 0l0 -118.73491z" fill-rule="nonzero"/><path shape-rendering="crispEdges" fill="#b7b7b7" d="m523.1496 118.73491l145.61682 0l0 118.73491l-145.61682 0l0 -118.73491z" fill-rule="nonzero"/><path shape-rendering="crispEdges" fill="#b7b7b7" d="m668.7664 118.73491l145.61676 0l0 118.73491l-145.61676 0l0 -118.73491z" fill-rule="nonzero"/><path shape-rendering="crispEdges" fill="#b7b7b7" d="m814.3832 118.73491l145.61682 0l0 118.73491l-145.61682 0l0 -118.73491z" fill-rule="nonzero"/><path shape-rendering="crispEdges" fill="#fafafa" d="m0 237.46982l160.0 0l0 237.46982l-160.0 0l0 -237.46982z" fill-rule="nonzero"/><path shape-rendering="crispEdges" fill="#fafafa" d="m160.0 237.46982l217.5328 0l0 118.73489l-217.5328 0l0 -118.73489z" fill-rule="nonzero"/><path shape-rendering="crispEdges" fill="#fafafa" d="m377.5328 237.46982l145.61679 0l0 118.73489l-145.61679 0l0 -118.73489z" fill-rule="nonzero"/><path shape-rendering="crispEdges" fill="#fafafa" d="m523.1496 237.46982l145.61682 0l0 118.73489l-145.61682 0l0 -118.73489z" fill-rule="nonzero"/><path shape-rendering="crispEdges" fill="#fafafa" d="m668.7664 237.46982l145.61676 0l0 118.73489l-145.61676 0l0 -118.73489z" fill-rule="nonzero"/><path shape-rendering="crispEdges" fill="#fafafa" d="m814.3832 237.46982l145.61682 0l0 118.73489l-145.61682 0l0 -118.73489z" fill-rule="nonzero"/><path shape-rendering="crispEdges" fill="#d9d9d9" d="m160.0 356.2047l217.5328 0l0 118.734924l-217.5328 0l0 -118.734924z" fill-rule="nonzero"/><path shape-rendering="crispEdges" fill="#d9d9d9" d="m377.5328 356.2047l145.61679 0l0 118.734924l-145.61679 0l0 -118.734924z" fill-rule="nonzero"/><path shape-rendering="crispEdges" fill="#d9d9d9" d="m523.1496 356.2047l145.61682 0l0 118.734924l-145.61682 0l0 -118.734924z" fill-rule="nonzero"/><path shape-rendering="crispEdges" fill="#d9d9d9" d="m668.7664 356.2047l145.61676 0l0 118.734924l-145.61676 0l0 -118.734924z" fill-rule="nonzero"/><path shape-rendering="crispEdges" fill="#d9d9d9" d="m814.3832 356.2047l145.61682 0l0 118.734924l-145.61682 0l0 -118.734924z" fill-rule="nonzero"/><path shape-rendering="crispEdges" fill="#fafafa" d="m0 474.93964l160.0 0l0 237.46979l-160.0 0l0 -237.46979z" fill-rule="nonzero"/><path shape-rendering="crispEdges" fill="#fafafa" d="m160.0 474.93964l217.5328 0l0 118.734924l-217.5328 0l0 -118.734924z" fill-rule="nonzero"/><path shape-rendering="crispEdges" fill="#fafafa" d="m377.5328 474.93964l145.61679 0l0 118.734924l-145.61679 0l0 -118.734924z" fill-rule="nonzero"/><path shape-rendering="crispEdges" fill="#fafafa" d="m523.1496 474.93964l145.61682 0l0 118.734924l-145.61682 0l0 -118.734924z" fill-rule="nonzero"/><path shape-rendering="crispEdges" fill="#fafafa" d="m668.7664 474.93964l145.61676 0l0 118.734924l-145.61676 0l0 -118.734924z" fill-rule="nonzero"/><path shape-rendering="crispEdges" fill="#fafafa" d="m814.3832 474.93964l145.61682 0l0 118.734924l-145.61682 0l0 -118.734924z" fill-rule="nonzero"/><path shape-rendering="crispEdges" fill="#d9d9d9" d="m160.0 593.67456l217.5328 0l0 118.73486l-217.5328 0l0 -118.73486z" fill-rule="nonzero"/><path shape-rendering="crispEdges" fill="#d9d9d9" d="m377.5328 593.67456l145.61679 0l0 118.73486l-145.61679 0l0 -118.73486z" fill-rule="nonzero"/><path shape-rendering="crispEdges" fill="#d9d9d9" d="m523.1496 593.67456l145.61682 0l0 118.73486l-145.61682 0l0 -118.73486z" fill-rule="nonzero"/><path shape-rendering="crispEdges" fill="#d9d9d9" d="m668.7664 593.67456l145.61676 0l0 118.73486l-145.61676 0l0 -118.73486z" fill-rule="nonzero"/><path shape-rendering="crispEdges" fill="#d9d9d9" d="m814.3832 593.67456l145.61682 0l0 118.73486l-145.61682 0l0 -118.73486z" fill-rule="nonzero"/><path stroke="#9e9e9e" stroke-width="1.0" stroke-linecap="butt" d="m0 -0.49868765l0 713.9081" fill-rule="nonzero"/><path stroke="#9e9e9e" stroke-width="1.0" stroke-linecap="butt" d="m160.0 -0.49868765l0 593.6745" fill-rule="nonzero"/><path stroke="#999999" stroke-width="1.0" stroke-linecap="butt" d="m160.0 593.17584l0 120.23358" fill-rule="nonzero"/><path stroke="#9e9e9e" stroke-width="1.0" stroke-linecap="butt" d="m377.5328 -0.49868765l0 593.6745" fill-rule="nonzero"/><path stroke="#999999" stroke-width="1.0" stroke-linecap="butt" d="m377.5328 593.17584l0 120.23358" fill-rule="nonzero"/><path stroke="#9e9e9e" stroke-width="1.0" stroke-linecap="butt" d="m523.1496 118.23622l0 474.93964" fill-rule="nonzero"/><path stroke="#999999" stroke-width="1.0" stroke-linecap="butt" d="m523.1496 593.17584l0 120.23358" fill-rule="nonzero"/><path stroke="#9e9e9e" stroke-width="1.0" stroke-linecap="butt" d="m668.7664 118.23622l0 474.93964" fill-rule="nonzero"/><path stroke="#999999" stroke-width="1.0" stroke-linecap="butt" d="m668.7664 593.17584l0 120.23358" fill-rule="nonzero"/><path stroke="#9e9e9e" stroke-width="1.0" stroke-linecap="butt" d="m814.3832 118.23622l0 474.93964" fill-rule="nonzero"/><path stroke="#999999" stroke-width="1.0" stroke-linecap="butt" d="m814.3832 593.17584l0 120.23358" fill-rule="nonzero"/><path stroke="#9e9e9e" stroke-width="1.0" stroke-linecap="butt" d="m960.0 -0.49868765l0 593.6745" fill-rule="nonzero"/><path stroke="#d9d9d9" stroke-width="1.0" stroke-linecap="butt" d="m960.0 593.17584l0 120.23358" fill-rule="nonzero"/><path stroke="#9e9e9e" stroke-width="1.0" stroke-linecap="butt" d="m-0.49868765 0l960.9973 0" fill-rule="nonzero"/><path stroke="#9e9e9e" stroke-width="1.0" stroke-linecap="butt" d="m-0.49868765 118.73491l960.9973 0" fill-rule="nonzero"/><path stroke="#9e9e9e" stroke-width="4.0" stroke-linecap="butt" d="m-0.49868765 237.46982l960.9973 0" fill-rule="nonzero"/><path stroke="#9e9e9e" stroke-width="1.0" stroke-linecap="butt" stroke-dasharray="4.0,3.0" d="m159.50131 356.2047l800.9973 0" fill-rule="nonzero"/><path stroke="#9e9e9e" stroke-width="2.0" stroke-linecap="butt" d="m-0.49868765 474.93964l960.9973 0" fill-rule="nonzero"/><path stroke="#999999" stroke-width="1.0" stroke-linecap="butt" stroke-dasharray="4.0,3.0" d="m159.50131 593.67456l800.9973 0" fill-rule="nonzero"/><path stroke="#9e9e9e" stroke-width="2.0" stroke-linecap="butt" d="m-0.49868765 712.4094l160.0 0" fill-rule="nonzero"/><path stroke="#999999" stroke-width="2.0" stroke-linecap="butt" d="m159.50131 712.4094l800.9973 0" fill-rule="nonzero"/><path fill="#000000" d="m554.099 62.754326q0 -2.546875 1.25 -4.9375q1.265625 -2.390625 3.5625 -3.640625q2.3125 -1.265625 5.15625 -1.265625q4.390625 0 7.1875 2.859375q2.8125 2.84375 2.8125 7.203125q0 4.390625 -2.84375 7.28125q-2.828125 2.890625 -7.125 2.890625q-2.65625 0 -5.078125 -1.203125q-2.40625 -1.203125 -3.671875 -3.515625q-1.25 -2.328125 -1.25 -5.671875zm5.25 0.28125q0 2.875 1.359375 4.40625q1.375 1.53125 3.375 1.53125q2.0 0 3.359375 -1.53125q1.359375 -1.53125 1.359375 -4.453125q0 -2.84375 -1.359375 -4.375q-1.359375 -1.53125 -3.359375 -1.53125q-2.0 0 -3.375 1.53125q-1.359375 1.53125 -1.359375 4.421875zm18.504639 9.671875l0 -26.71875l5.125 0l0 9.625q2.375 -2.703125 5.625 -2.703125q3.53125 0 5.84375 2.5625q2.3125 2.5625 2.3125 7.359375q0 4.953125 -2.359375 7.640625q-2.359375 2.671875 -5.734375 2.671875q-1.65625 0 -3.265625 -0.828125q-1.609375 -0.828125 -2.78125 -2.453125l0 2.84375l-4.765625 0zm5.09375 -10.09375q0 3.0 0.953125 4.4375q1.328125 2.046875 3.53125 2.046875q1.6875 0 2.875 -1.4375q1.203125 -1.453125 1.203125 -4.578125q0 -3.3125 -1.203125 -4.78125q-1.203125 -1.46875 -3.078125 -1.46875q-1.84375 0 -3.0625 1.4375q-1.21875 1.421875 -1.21875 4.34375zm16.129639 4.578125l5.140625 -0.796875q0.328125 1.5 1.328125 2.28125q1.0 0.765625 2.8125 0.765625q1.984375 0 2.984375 -0.71875q0.671875 -0.515625 0.671875 -1.375q0 -0.578125 -0.359375 -0.96875q-0.390625 -0.359375 -1.71875 -0.671875q-6.1875 -1.359375 -7.859375 -2.5q-2.296875 -1.5625 -2.296875 -4.359375q0 -2.515625 1.984375 -4.21875q2.0 -1.71875 6.171875 -1.71875q3.96875 0 5.90625 1.296875q1.9375 1.296875 2.65625 3.828125l-4.828125 0.890625q-0.3125 -1.125 -1.1875 -1.71875q-0.859375 -0.609375 -2.453125 -0.609375q-2.03125 0 -2.90625 0.5625q-0.578125 0.40625 -0.578125 1.03125q0 0.546875 0.515625 0.9375q0.6875 0.515625 4.78125 1.453125q4.09375 0.921875 5.71875 2.265625q1.59375 1.359375 1.59375 3.8125q0 2.65625 -2.21875 4.578125q-2.21875 1.90625 -6.578125 1.90625q-3.953125 0 -6.265625 -1.59375q-2.3125 -1.609375 -3.015625 -4.359375zm33.775757 -0.640625l5.09375 0.859375q-0.96875 2.796875 -3.09375 4.265625q-2.125 1.46875 -5.3125 1.46875q-5.0625 0 -7.484375 -3.296875q-1.90625 -2.640625 -1.90625 -6.671875q0 -4.8125 2.515625 -7.53125q2.515625 -2.734375 6.359375 -2.734375q4.3125 0 6.8125 2.859375q2.5 2.84375 2.390625 8.734375l-12.828125 0q0.046875 2.28125 1.234375 3.546875q1.1875 1.265625 2.953125 1.265625q1.203125 0 2.015625 -0.65625q0.828125 -0.65625 1.25 -2.109375zm0.296875 -5.1875q-0.0625 -2.21875 -1.15625 -3.375q-1.09375 -1.15625 -2.65625 -1.15625q-1.6875 0 -2.78125 1.21875q-1.09375 1.21875 -1.0625 3.3125l7.65625 0zm14.150757 11.34375l-5.125 0l0 -19.359375l4.765625 0l0 2.75q1.21875 -1.953125 2.1875 -2.5625q0.984375 -0.625 2.21875 -0.625q1.75 0 3.375 0.96875l-1.578125 4.46875q-1.296875 -0.84375 -2.40625 -0.84375q-1.078125 0 -1.828125 0.59375q-0.75 0.59375 -1.1875 2.140625q-0.421875 1.546875 -0.421875 6.484375l0 5.984375zm14.948486 0l-7.796875 -19.359375l5.375 0l3.640625 9.875l1.0625 3.3125q0.421875 -1.265625 0.53125 -1.671875q0.25 -0.8125 0.546875 -1.640625l3.671875 -9.875l5.265625 0l-7.6875 19.359375l-4.609375 0zm19.260132 -13.453125l-4.640625 -0.84375q0.78125 -2.796875 2.6875 -4.140625q1.921875 -1.359375 5.703125 -1.359375q3.421875 0 5.09375 0.8125q1.6875 0.8125 2.359375 2.0625q0.6875 1.25 0.6875 4.578125l-0.046875 5.984375q0 2.546875 0.234375 3.765625q0.25 1.203125 0.921875 2.59375l-5.0625 0q-0.203125 -0.515625 -0.5 -1.515625q-0.125 -0.453125 -0.171875 -0.59375q-1.3125 1.265625 -2.8125 1.90625q-1.5 0.640625 -3.1875 0.640625q-2.984375 0 -4.71875 -1.625q-1.71875 -1.625 -1.71875 -4.09375q0 -1.640625 0.78125 -2.921875q0.78125 -1.296875 2.1875 -1.96875q1.421875 -0.6875 4.09375 -1.203125q3.578125 -0.671875 4.96875 -1.25l0 -0.515625q0 -1.484375 -0.734375 -2.109375q-0.71875 -0.625 -2.75 -0.625q-1.359375 0 -2.125 0.546875q-0.765625 0.53125 -1.25 1.875zm6.859375 4.15625q-0.984375 0.328125 -3.125 0.78125q-2.125 0.453125 -2.78125 0.890625q-1.0 0.71875 -1.0 1.8125q0 1.078125 0.796875 1.859375q0.8125 0.78125 2.046875 0.78125q1.390625 0 2.640625 -0.90625q0.9375 -0.703125 1.21875 -1.703125q0.203125 -0.65625 0.203125 -2.5l0 -1.015625zm18.963257 -10.0625l0 4.078125l-3.5 0l0 7.8125q0 2.359375 0.09375 2.765625q0.09375 0.390625 0.453125 0.640625q0.359375 0.25 0.875 0.25q0.703125 0 2.046875 -0.484375l0.4375 3.96875q-1.78125 0.765625 -4.046875 0.765625q-1.375 0 -2.5 -0.453125q-1.109375 -0.46875 -1.625 -1.203125q-0.515625 -0.75 -0.71875 -2.0q-0.15625 -0.90625 -0.15625 -3.609375l0 -8.453125l-2.359375 0l0 -4.078125l2.359375 0l0 -3.84375l5.140625 -2.984375l0 6.828125l3.5 0zm3.539917 -2.625l0 -4.734375l5.125 0l0 4.734375l-5.125 0zm0 21.984375l0 -19.359375l5.125 0l0 19.359375l-5.125 0zm9.199097 -9.953125q0 -2.546875 1.25 -4.9375q1.265625 -2.390625 3.5625 -3.640625q2.3125 -1.265625 5.15625 -1.265625q4.390625 0 7.1875 2.859375q2.8125 2.84375 2.8125 7.203125q0 4.390625 -2.84375 7.28125q-2.828125 2.890625 -7.125 2.890625q-2.65625 0 -5.078125 -1.203125q-2.40625 -1.203125 -3.671875 -3.515625q-1.25 -2.328125 -1.25 -5.671875zm5.25 0.28125q0 2.875 1.359375 4.40625q1.375 1.53125 3.375 1.53125q2.0 0 3.359375 -1.53125q1.359375 -1.53125 1.359375 -4.453125q0 -2.84375 -1.359375 -4.375q-1.359375 -1.53125 -3.359375 -1.53125q-2.0 0 -3.375 1.53125q-1.359375 1.53125 -1.359375 4.421875zm36.332764 9.671875l-5.109375 0l0 -9.875q0 -3.140625 -0.328125 -4.0625q-0.328125 -0.921875 -1.078125 -1.421875q-0.734375 -0.515625 -1.765625 -0.515625q-1.34375 0 -2.40625 0.734375q-1.046875 0.71875 -1.4375 1.921875q-0.390625 1.203125 -0.390625 4.453125l0 8.765625l-5.125 0l0 -19.359375l4.765625 0l0 2.84375q2.53125 -3.28125 6.375 -3.28125q1.6875 0 3.09375 0.609375q1.40625 0.609375 2.125 1.5625q0.71875 0.953125 1.0 2.15625q0.28125 1.203125 0.28125 3.4375l0 12.03125zm3.3952637 -5.515625l5.140625 -0.796875q0.328125 1.5 1.328125 2.28125q1.0 0.765625 2.8125 0.765625q1.984375 0 2.984375 -0.71875q0.671875 -0.515625 0.671875 -1.375q0 -0.578125 -0.359375 -0.96875q-0.390625 -0.359375 -1.71875 -0.671875q-6.1875 -1.359375 -7.859375 -2.5q-2.296875 -1.5625 -2.296875 -4.359375q0 -2.515625 1.984375 -4.21875q2.0 -1.71875 6.171875 -1.71875q3.96875 0 5.90625 1.296875q1.9375 1.296875 2.65625 3.828125l-4.828125 0.890625q-0.3125 -1.125 -1.1875 -1.71875q-0.859375 -0.609375 -2.453125 -0.609375q-2.03125 0 -2.90625 0.5625q-0.578125 0.40625 -0.578125 1.03125q0 0.546875 0.515625 0.9375q0.6875 0.515625 4.78125 1.453125q4.09375 0.921875 5.71875 2.265625q1.59375 1.359375 1.59375 3.8125q0 2.65625 -2.21875 4.578125q-2.21875 1.90625 -6.578125 1.90625q-3.953125 0 -6.265625 -1.59375q-2.3125 -1.609375 -3.015625 -4.359375z" fill-rule="nonzero"/><path fill="#000000" d="m197.02652 185.92673l5.140625 -0.796875q0.328125 1.5 1.328125 2.28125q1.0 0.765625 2.8125 0.765625q1.984375 0 2.984375 -0.71875q0.671875 -0.515625 0.671875 -1.375q0 -0.578125 -0.359375 -0.96875q-0.390625 -0.359375 -1.71875 -0.671875q-6.1875 -1.359375 -7.859375 -2.5q-2.296875 -1.5625 -2.296875 -4.359375q0 -2.515625 1.984375 -4.21875q2.0 -1.71875 6.171875 -1.71875q3.96875 0 5.90625 1.296875q1.9375 1.296875 2.65625 3.828125l-4.828125 0.890625q-0.3125 -1.125 -1.1875 -1.71875q-0.859375 -0.609375 -2.453125 -0.609375q-2.03125 0 -2.90625 0.5625q-0.578125 0.40625 -0.578125 1.03125q0 0.546875 0.515625 0.9375q0.6875 0.515625 4.78125 1.453125q4.09375 0.921875 5.71875 2.265625q1.59375 1.359375 1.59375 3.8125q0 2.65625 -2.21875 4.578125q-2.21875 1.90625 -6.578125 1.90625q-3.953125 0 -6.265625 -1.59375q-2.3125 -1.609375 -3.015625 -4.359375zm31.447632 -13.84375l0 4.078125l-3.5 0l0 7.8125q0 2.359375 0.09375 2.765625q0.09375 0.390625 0.453125 0.640625q0.359375 0.25 0.875 0.25q0.703125 0 2.046875 -0.484375l0.4375 3.96875q-1.78125 0.765625 -4.046875 0.765625q-1.375 0 -2.5 -0.453125q-1.109375 -0.46875 -1.625 -1.203125q-0.515625 -0.75 -0.71875 -2.0q-0.15625 -0.90625 -0.15625 -3.609375l0 -8.453125l-2.359375 0l0 -4.078125l2.359375 0l0 -3.84375l5.140625 -2.984375l0 6.828125l3.5 0zm8.446167 19.359375l-5.125 0l0 -19.359375l4.765625 0l0 2.75q1.21875 -1.953125 2.1875 -2.5625q0.984375 -0.625 2.21875 -0.625q1.75 0 3.375 0.96875l-1.578125 4.46875q-1.296875 -0.84375 -2.40625 -0.84375q-1.078125 0 -1.828125 0.59375q-0.75 0.59375 -1.1875 2.140625q-0.421875 1.546875 -0.421875 6.484375l0 5.984375zm13.448517 -13.453125l-4.640625 -0.84375q0.78125 -2.796875 2.6875 -4.140625q1.921875 -1.359375 5.703125 -1.359375q3.421875 0 5.09375 0.8125q1.6875 0.8125 2.359375 2.0625q0.6875 1.25 0.6875 4.578125l-0.046875 5.984375q0 2.546875 0.234375 3.765625q0.25 1.203125 0.921875 2.59375l-5.0625 0q-0.203125 -0.515625 -0.5 -1.515625q-0.125 -0.453125 -0.171875 -0.59375q-1.3125 1.265625 -2.8125 1.90625q-1.5 0.640625 -3.1875 0.640625q-2.984375 0 -4.71875 -1.625q-1.71875 -1.625 -1.71875 -4.09375q0 -1.640625 0.78125 -2.921875q0.78125 -1.296875 2.1875 -1.96875q1.421875 -0.6875 4.09375 -1.203125q3.578125 -0.671875 4.96875 -1.25l0 -0.515625q0 -1.484375 -0.734375 -2.109375q-0.71875 -0.625 -2.75 -0.625q-1.359375 0 -2.125 0.546875q-0.765625 0.53125 -1.25 1.875zm6.859375 4.15625q-0.984375 0.328125 -3.125 0.78125q-2.125 0.453125 -2.78125 0.890625q-1.0 0.71875 -1.0 1.8125q0 1.078125 0.796875 1.859375q0.8125 0.78125 2.046875 0.78125q1.390625 0 2.640625 -0.90625q0.9375 -0.703125 1.21875 -1.703125q0.203125 -0.65625 0.203125 -2.5l0 -1.015625zm18.963257 -10.0625l0 4.078125l-3.5 0l0 7.8125q0 2.359375 0.09375 2.765625q0.09375 0.390625 0.453125 0.640625q0.359375 0.25 0.875 0.25q0.703125 0 2.046875 -0.484375l0.4375 3.96875q-1.78125 0.765625 -4.046875 0.765625q-1.375 0 -2.5 -0.453125q-1.109375 -0.46875 -1.625 -1.203125q-0.515625 -0.75 -0.71875 -2.0q-0.15625 -0.90625 -0.15625 -3.609375l0 -8.453125l-2.359375 0l0 -4.078125l2.359375 0l0 -3.84375l5.140625 -2.984375l0 6.828125l3.5 0zm14.758667 13.203125l5.09375 0.859375q-0.96875 2.796875 -3.09375 4.265625q-2.125 1.46875 -5.3125 1.46875q-5.0625 0 -7.484375 -3.296875q-1.90625 -2.640625 -1.90625 -6.671875q0 -4.8125 2.515625 -7.53125q2.515625 -2.734375 6.359375 -2.734375q4.3125 0 6.8125 2.859375q2.5 2.84375 2.390625 8.734375l-12.828125 0q0.046875 2.28125 1.234375 3.546875q1.1875 1.265625 2.953125 1.265625q1.203125 0 2.015625 -0.65625q0.828125 -0.65625 1.25 -2.109375zm0.296875 -5.1875q-0.0625 -2.21875 -1.15625 -3.375q-1.09375 -1.15625 -2.65625 -1.15625q-1.6875 0 -2.78125 1.21875q-1.09375 1.21875 -1.0625 3.3125l7.65625 0zm8.775757 12.625l5.859375 0.703125q0.140625 1.015625 0.671875 1.40625q0.71875 0.546875 2.296875 0.546875q2.0 0 3.0 -0.609375q0.671875 -0.390625 1.03125 -1.28125q0.234375 -0.640625 0.234375 -2.359375l0 -2.828125q-2.296875 3.140625 -5.796875 3.140625q-3.90625 0 -6.1875 -3.296875q-1.78125 -2.609375 -1.78125 -6.484375q0 -4.875 2.34375 -7.4375q2.34375 -2.578125 5.828125 -2.578125q3.578125 0 5.921875 3.15625l0 -2.71875l4.78125 0l0 17.375q0 3.421875 -0.5625 5.109375q-0.5625 1.703125 -1.578125 2.671875q-1.015625 0.96875 -2.734375 1.515625q-1.703125 0.546875 -4.296875 0.546875q-4.921875 0 -6.984375 -1.6875q-2.0625 -1.6875 -2.0625 -4.28125q0 -0.25 0.015625 -0.609375zm4.578125 -11.359375q0 3.078125 1.1875 4.515625q1.203125 1.421875 2.953125 1.421875q1.875 0 3.171875 -1.46875q1.296875 -1.46875 1.296875 -4.34375q0 -3.0 -1.25 -4.453125q-1.234375 -1.46875 -3.125 -1.46875q-1.84375 0 -3.046875 1.4375q-1.1875 1.421875 -1.1875 4.359375zm16.270264 -9.28125l5.453125 0l4.625 13.75l4.53125 -13.75l5.296875 0l-6.828125 18.625l-1.21875 3.375q-0.6875 1.703125 -1.296875 2.59375q-0.609375 0.890625 -1.40625 1.4375q-0.78125 0.5625 -1.9375 0.875q-1.15625 0.3125 -2.625 0.3125q-1.46875 0 -2.890625 -0.3125l-0.453125 -4.015625q1.203125 0.234375 2.15625 0.234375q1.796875 0 2.640625 -1.046875q0.859375 -1.046875 1.328125 -2.671875l-7.375 -19.40625z" fill-rule="nonzero"/><path fill="#000000" d="m417.18198 191.44235l-5.109375 0l0 -9.875q0 -3.140625 -0.328125 -4.0625q-0.328125 -0.921875 -1.078125 -1.421875q-0.734375 -0.515625 -1.765625 -0.515625q-1.34375 0 -2.40625 0.734375q-1.046875 0.71875 -1.4375 1.921875q-0.390625 1.203125 -0.390625 4.453125l0 8.765625l-5.125 0l0 -19.359375l4.765625 0l0 2.84375q2.53125 -3.28125 6.375 -3.28125q1.6875 0 3.09375 0.609375q1.40625 0.609375 2.125 1.5625q0.71875 0.953125 1.0 2.15625q0.28125 1.203125 0.28125 3.4375l0 12.03125zm4.0671387 -14.875l0 -4.703125l18.6875 0l0 4.703125l-18.6875 0zm0 8.09375l0 -4.71875l18.6875 0l0 4.71875l-18.6875 0zm31.877167 6.78125l0 -5.375l-10.9375 0l0 -4.484375l11.59375 -16.96875l4.3125 0l0 16.953125l3.3125 0l0 4.5l-3.3125 0l0 5.375l-4.96875 0zm0 -9.875l0 -9.140625l-6.140625 9.140625l6.140625 0zm19.385132 -16.953125q3.875 0 6.0625 2.765625q2.609375 3.28125 2.609375 10.890625q0 7.578125 -2.625 10.890625q-2.171875 2.734375 -6.046875 2.734375q-3.90625 0 -6.296875 -3.0q-2.390625 -3.0 -2.390625 -10.6875q0 -7.546875 2.625 -10.859375q2.171875 -2.734375 6.0625 -2.734375zm0 4.25q-0.9375 0 -1.671875 0.59375q-0.71875 0.59375 -1.125 2.125q-0.53125 1.984375 -0.53125 6.6875q0 4.703125 0.46875 6.46875q0.484375 1.75 1.203125 2.328125q0.71875 0.578125 1.65625 0.578125q0.921875 0 1.640625 -0.578125q0.734375 -0.59375 1.140625 -2.125q0.53125 -1.96875 0.53125 -6.671875q0 -4.703125 -0.484375 -6.453125q-0.46875 -1.765625 -1.1875 -2.359375q-0.71875 -0.59375 -1.640625 -0.59375zm20.760132 -4.25q3.875 0 6.0625 2.765625q2.609375 3.28125 2.609375 10.890625q0 7.578125 -2.625 10.890625q-2.171875 2.734375 -6.046875 2.734375q-3.90625 0 -6.296875 -3.0q-2.390625 -3.0 -2.390625 -10.6875q0 -7.546875 2.625 -10.859375q2.171875 -2.734375 6.0625 -2.734375zm0 4.25q-0.9375 0 -1.671875 0.59375q-0.71875 0.59375 -1.125 2.125q-0.53125 1.984375 -0.53125 6.6875q0 4.703125 0.46875 6.46875q0.484375 1.75 1.203125 2.328125q0.71875 0.578125 1.65625 0.578125q0.921875 0 1.640625 -0.578125q0.734375 -0.59375 1.140625 -2.125q0.53125 -1.96875 0.53125 -6.671875q0 -4.703125 -0.484375 -6.453125q-0.46875 -1.765625 -1.1875 -2.359375q-0.71875 -0.59375 -1.640625 -0.59375z" fill-rule="nonzero"/><path fill="#000000" d="m582.6721 186.69235l0 4.75l-17.953125 0q0.296875 -2.703125 1.75 -5.109375q1.46875 -2.421875 5.765625 -6.40625q3.46875 -3.234375 4.25 -4.375q1.0625 -1.59375 1.0625 -3.140625q0 -1.703125 -0.921875 -2.625q-0.921875 -0.921875 -2.546875 -0.921875q-1.609375 0 -2.5625 0.96875q-0.9375 0.953125 -1.078125 3.203125l-5.109375 -0.515625q0.453125 -4.21875 2.859375 -6.0625q2.40625 -1.84375 6.015625 -1.84375q3.953125 0 6.203125 2.140625q2.265625 2.125 2.265625 5.296875q0 1.796875 -0.640625 3.4375q-0.640625 1.625 -2.046875 3.40625q-0.9375 1.1875 -3.359375 3.421875q-2.421875 2.21875 -3.078125 2.953125q-0.640625 0.71875 -1.03125 1.421875l10.15625 0zm2.1038818 4.75l6.984375 -9.96875l-6.6875 -9.390625l6.25 0l3.421875 5.328125l3.609375 -5.328125l6.015625 0l-6.5625 9.171875l7.15625 10.1875l-6.28125 0l-3.9375 -6.0l-3.96875 6.0l-6.0 0zm40.82263 0l-5.109375 0l0 -9.875q0 -3.140625 -0.328125 -4.0625q-0.328125 -0.921875 -1.078125 -1.421875q-0.734375 -0.515625 -1.765625 -0.515625q-1.34375 0 -2.40625 0.734375q-1.046875 0.71875 -1.4375 1.921875q-0.390625 1.203125 -0.390625 4.453125l0 8.765625l-5.125 0l0 -19.359375l4.765625 0l0 2.84375q2.53125 -3.28125 6.375 -3.28125q1.6875 0 3.09375 0.609375q1.40625 0.609375 2.125 1.5625q0.71875 0.953125 1.0 2.15625q0.28125 1.203125 0.28125 3.4375l0 12.03125z" fill-rule="nonzero"/><path fill="#000000" d="m721.03894 191.44235l0 -5.375l-10.9375 0l0 -4.484375l11.59375 -16.96875l4.3125 0l0 16.953125l3.3125 0l0 4.5l-3.3125 0l0 5.375l-4.96875 0zm0 -9.875l0 -9.140625l-6.140625 9.140625l6.140625 0zm9.353882 9.875l6.984375 -9.96875l-6.6875 -9.390625l6.25 0l3.421875 5.328125l3.609375 -5.328125l6.015625 0l-6.5625 9.171875l7.15625 10.1875l-6.28125 0l-3.9375 -6.0l-3.96875 6.0l-6.0 0zm40.82263 0l-5.109375 0l0 -9.875q0 -3.140625 -0.328125 -4.0625q-0.328125 -0.921875 -1.078125 -1.421875q-0.734375 -0.515625 -1.765625 -0.515625q-1.34375 0 -2.40625 0.734375q-1.046875 0.71875 -1.4375 1.921875q-0.390625 1.203125 -0.390625 4.453125l0 8.765625l-5.125 0l0 -19.359375l4.765625 0l0 2.84375q2.53125 -3.28125 6.375 -3.28125q1.6875 0 3.09375 0.609375q1.40625 0.609375 2.125 1.5625q0.71875 0.953125 1.0 2.15625q0.28125 1.203125 0.28125 3.4375l0 12.03125z" fill-rule="nonzero"/><path fill="#000000" d="m861.0151 177.02048q-2.0 -0.828125 -2.90625 -2.296875q-0.890625 -1.46875 -0.890625 -3.21875q0 -2.984375 2.078125 -4.9375q2.09375 -1.953125 5.9375 -1.953125q3.8125 0 5.921875 1.953125q2.109375 1.953125 2.109375 4.9375q0 1.859375 -0.96875 3.3125q-0.96875 1.4375 -2.71875 2.203125q2.21875 0.890625 3.375 2.609375q1.15625 1.71875 1.15625 3.953125q0 3.703125 -2.359375 6.015625q-2.359375 2.3125 -6.28125 2.3125q-3.640625 0 -6.0625 -1.90625q-2.859375 -2.265625 -2.859375 -6.203125q0 -2.171875 1.0625 -3.984375q1.078125 -1.8125 3.40625 -2.796875zm1.046875 -5.15625q0 1.53125 0.859375 2.390625q0.875 0.859375 2.3125 0.859375q1.46875 0 2.34375 -0.859375q0.875 -0.875 0.875 -2.40625q0 -1.4375 -0.875 -2.296875q-0.859375 -0.875 -2.28125 -0.875q-1.484375 0 -2.359375 0.875q-0.875 0.875 -0.875 2.3125zm-0.46875 11.453125q0 2.109375 1.078125 3.296875q1.09375 1.1875 2.71875 1.1875q1.578125 0 2.609375 -1.140625q1.046875 -1.140625 1.046875 -3.296875q0 -1.875 -1.0625 -3.015625q-1.046875 -1.140625 -2.671875 -1.140625q-1.875 0 -2.796875 1.296875q-0.921875 1.296875 -0.921875 2.8125zm14.416382 8.125l6.984375 -9.96875l-6.6875 -9.390625l6.25 0l3.421875 5.328125l3.609375 -5.328125l6.015625 0l-6.5625 9.171875l7.15625 10.1875l-6.28125 0l-3.9375 -6.0l-3.96875 6.0l-6.0 0zm40.82263 0l-5.109375 0l0 -9.875q0 -3.140625 -0.328125 -4.0625q-0.328125 -0.921875 -1.078125 -1.421875q-0.734375 -0.515625 -1.765625 -0.515625q-1.34375 0 -2.40625 0.734375q-1.046875 0.71875 -1.4375 1.921875q-0.390625 1.203125 -0.390625 4.453125l0 8.765625l-5.125 0l0 -19.359375l4.765625 0l0 2.84375q2.53125 -3.28125 6.375 -3.28125q1.6875 0 3.09375 0.609375q1.40625 0.609375 2.125 1.5625q0.71875 0.953125 1.0 2.15625q0.28125 1.203125 0.28125 3.4375l0 12.03125z" fill-rule="nonzero"/><path fill="#000000" d="m53.186333 327.68533l0 4.078125l-3.5 0l0 7.8125q0 2.359375 0.09375 2.765625q0.09375 0.390625 0.453125 0.640625q0.359375 0.25 0.875 0.25q0.703125 0 2.046875 -0.484375l0.4375 3.96875q-1.78125 0.765625 -4.046875 0.765625q-1.375 0 -2.5 -0.453125q-1.109375 -0.46875 -1.625 -1.203125q-0.515625 -0.75 -0.71875 -2.0q-0.15625 -0.90625 -0.15625 -3.609375l0 -8.453125l-2.359375 0l0 -4.078125l2.359375 0l0 -3.84375l5.140625 -2.984375l0 6.828125l3.5 0zm3.5399323 -2.625l0 -4.734375l5.125 0l0 4.734375l-5.125 0zm0 21.984375l0 -19.359375l5.125 0l0 19.359375l-5.125 0zm9.995956 -19.359375l4.71875 0l0 2.640625q2.53125 -3.078125 6.03125 -3.078125q1.859375 0 3.21875 0.765625q1.375 0.765625 2.25 2.3125q1.28125 -1.546875 2.75 -2.3125q1.484375 -0.765625 3.15625 -0.765625q2.140625 0 3.609375 0.875q1.484375 0.859375 2.203125 2.53125q0.53125 1.25 0.53125 4.015625l0 12.375l-5.125 0l0 -11.0625q0 -2.875 -0.53125 -3.71875q-0.703125 -1.09375 -2.1875 -1.09375q-1.0625 0 -2.015625 0.65625q-0.953125 0.65625 -1.375 1.921875q-0.40625 1.265625 -0.40625 4.0l0 9.296875l-5.125 0l0 -10.609375q0 -2.828125 -0.28125 -3.640625q-0.265625 -0.828125 -0.84375 -1.21875q-0.578125 -0.40625 -1.5625 -0.40625q-1.171875 0 -2.125 0.640625q-0.953125 0.640625 -1.359375 1.84375q-0.40625 1.203125 -0.40625 3.984375l0 9.40625l-5.125 0l0 -19.359375zm44.78444 13.203125l5.09375 0.859375q-0.96875 2.796875 -3.09375 4.265625q-2.125 1.46875 -5.3125 1.46875q-5.0625 0 -7.484375 -3.296875q-1.90625 -2.640625 -1.90625 -6.671875q0 -4.8125 2.515625 -7.53125q2.515625 -2.734375 6.359375 -2.734375q4.3125 0 6.8125 2.859375q2.5 2.84375 2.390625 8.734375l-12.828125 0q0.046875 2.28125 1.234375 3.546875q1.1875 1.265625 2.953125 1.265625q1.203125 0 2.015625 -0.65625q0.828125 -0.65625 1.25 -2.109375zm0.296875 -5.1875q-0.0625 -2.21875 -1.15625 -3.375q-1.09375 -1.15625 -2.65625 -1.15625q-1.6875 0 -2.78125 1.21875q-1.09375 1.21875 -1.0625 3.3125l7.65625 0z" fill-rule="nonzero"/><path fill="#000000" d="m26.895668 399.90408l-3.515625 0q-2.796875 -4.21875 -4.25 -8.75q-1.453125 -4.546875 -1.453125 -8.78125q0 -5.28125 1.796875 -9.96875q1.578125 -4.09375 3.984375 -7.53125l3.5 0q-2.5 5.515625 -3.4375 9.390625q-0.9375 3.875 -0.9375 8.21875q0 2.984375 0.546875 6.125q0.5625 3.125 1.53125 5.953125q0.625 1.859375 2.234375 5.34375zm9.039932 -34.578125l0 9.828125q2.484375 -2.90625 5.921875 -2.90625q1.765625 0 3.1875 0.65625q1.421875 0.65625 2.140625 1.6875q0.71875 1.015625 0.984375 2.25q0.265625 1.234375 0.265625 3.84375l0 11.359375l-5.109375 0l0 -10.21875q0 -3.046875 -0.296875 -3.859375q-0.296875 -0.828125 -1.03125 -1.3125q-0.734375 -0.484375 -1.84375 -0.484375q-1.28125 0 -2.28125 0.625q-1.0 0.609375 -1.46875 1.859375q-0.46875 1.25 -0.46875 3.6875l0 9.703125l-5.125 0l0 -26.71875l5.125 0zm16.520264 16.765625q0 -2.546875 1.25 -4.9375q1.265625 -2.390625 3.5625 -3.640625q2.3125 -1.265625 5.15625 -1.265625q4.390625 0 7.1875 2.859375q2.8125 2.84375 2.8125 7.203125q0 4.390625 -2.84375 7.28125q-2.828125 2.890625 -7.125 2.890625q-2.65625 0 -5.078125 -1.203125q-2.40625 -1.203125 -3.671875 -3.515625q-1.25 -2.328125 -1.25 -5.671875zm5.25 0.28125q0 2.875 1.359375 4.40625q1.375 1.53125 3.375 1.53125q2.0 0 3.359375 -1.53125q1.359375 -1.53125 1.359375 -4.453125q0 -2.84375 -1.359375 -4.375q-1.359375 -1.53125 -3.359375 -1.53125q-2.0 0 -3.375 1.53125q-1.359375 1.53125 -1.359375 4.421875zm31.473389 9.671875l0 -2.890625q-1.0625 1.546875 -2.78125 2.4375q-1.71875 0.890625 -3.640625 0.890625q-1.953125 0 -3.5 -0.859375q-1.546875 -0.859375 -2.25 -2.40625q-0.6875 -1.546875 -0.6875 -4.28125l0 -12.25l5.125 0l0 8.890625q0 4.09375 0.28125 5.015625q0.28125 0.921875 1.03125 1.453125q0.75 0.53125 1.90625 0.53125q1.3125 0 2.34375 -0.71875q1.046875 -0.71875 1.421875 -1.78125q0.390625 -1.0625 0.390625 -5.21875l0 -8.171875l5.109375 0l0 19.359375l-4.75 0zm14.957764 0l-5.125 0l0 -19.359375l4.765625 0l0 2.75q1.21875 -1.953125 2.1875 -2.5625q0.984375 -0.625 2.21875 -0.625q1.75 0 3.375 0.96875l-1.578125 4.46875q-1.296875 -0.84375 -2.40625 -0.84375q-1.078125 0 -1.828125 0.59375q-0.75 0.59375 -1.1875 2.140625q-0.421875 1.546875 -0.421875 6.484375l0 5.984375zm7.8235016 -5.515625l5.140625 -0.796875q0.328125 1.5 1.328125 2.28125q1.0 0.765625 2.8125 0.765625q1.984375 0 2.984375 -0.71875q0.671875 -0.515625 0.671875 -1.375q0 -0.578125 -0.359375 -0.96875q-0.390625 -0.359375 -1.71875 -0.671875q-6.1875 -1.359375 -7.859375 -2.5q-2.296875 -1.5625 -2.296875 -4.359375q0 -2.515625 1.984375 -4.21875q2.0 -1.71875 6.171875 -1.71875q3.96875 0 5.90625 1.296875q1.9374924 1.296875 2.6562424 3.828125l-4.8281174 0.890625q-0.3125 -1.125 -1.1875 -1.71875q-0.859375 -0.609375 -2.453125 -0.609375q-2.03125 0 -2.90625 0.5625q-0.578125 0.40625 -0.578125 1.03125q0 0.546875 0.515625 0.9375q0.6875 0.515625 4.78125 1.453125q4.09375 0.921875 5.7187424 2.265625q1.59375 1.359375 1.59375 3.8125q0 2.65625 -2.2187424 4.578125q-2.21875 1.90625 -6.578125 1.90625q-3.953125 0 -6.265625 -1.59375q-2.3125 -1.609375 -3.015625 -4.359375zm21.135124 13.375q1.515625 -3.25 2.140625 -4.984375q0.625 -1.734375 1.140625 -3.984375q0.53125 -2.265625 0.78125 -4.296875q0.265625 -2.03125 0.265625 -4.15625q0 -4.34375 -0.9375 -8.21875q-0.921875 -3.875 -3.421875 -9.390625l3.484375 0q2.75 3.921875 4.265625 8.3125q1.53125 4.390625 1.53125 8.90625q0 3.8125 -1.203125 8.171875q-1.375 4.875 -4.5 9.640625l-3.546875 0z" fill-rule="nonzero"/><path fill="#000000" d="m248.15775 310.17728l0 -16.8125l-2.90625 0l0 -2.546875l2.90625 0l0 -2.0625q0 -1.9375 0.34375 -2.890625q0.46875 -1.28125 1.65625 -2.0625q1.203125 -0.796875 3.359375 -0.796875q1.375 0 3.0625 0.328125l-0.5 2.859375q-1.015625 -0.1875 -1.9375 -0.1875q-1.484375 0 -2.109375 0.640625q-0.625 0.640625 -0.625 2.390625l0 1.78125l3.78125 0l0 2.546875l-3.78125 0l0 16.8125l-3.25 0zm22.261566 0l0 -2.84375q-2.25 3.28125 -6.140625 3.28125q-1.703125 0 -3.203125 -0.65625q-1.484375 -0.65625 -2.203125 -1.640625q-0.71875 -1.0 -1.0 -2.4375q-0.203125 -0.96875 -0.203125 -3.0625l0 -12.0l3.28125 0l0 10.734375q0 2.578125 0.203125 3.46875q0.296875 1.296875 1.296875 2.03125q1.015625 0.734375 2.484375 0.734375q1.484375 0 2.765625 -0.75q1.296875 -0.765625 1.828125 -2.0625q0.546875 -1.296875 0.546875 -3.78125l0 -10.375l3.28125 0l0 19.359375l-2.9375 0zm8.010132 0l0 -26.71875l3.28125 0l0 26.71875l-3.28125 0zm8.293121 0l0 -26.71875l3.28125 0l0 26.71875l-3.28125 0z" fill-rule="nonzero"/><path fill="#000000" d="m415.5624 297.0054q0 -4.75 0.96875 -7.625q0.984375 -2.890625 2.90625 -4.453125q1.921875 -1.578125 4.84375 -1.578125q2.140625 0 3.765625 0.875q1.625 0.859375 2.671875 2.5q1.0625 1.625 1.65625 3.96875q0.609375 2.328125 0.609375 6.3125q0 4.703125 -0.96875 7.59375q-0.953125 2.875 -2.875 4.453125q-1.921875 1.578125 -4.859375 1.578125q-3.875 0 -6.078125 -2.765625q-2.640625 -3.34375 -2.640625 -10.859375zm3.375 0q0 6.578125 1.53125 8.765625q1.546875 2.171875 3.8125 2.171875q2.25 0 3.796875 -2.1875q1.546875 -2.1875 1.546875 -8.75q0 -6.609375 -1.546875 -8.765625q-1.546875 -2.171875 -3.84375 -2.171875q-2.25 0 -3.609375 1.90625q-1.6875 2.453125 -1.6875 9.03125zm19.228882 13.171875l0 -3.734375l3.734375 0l0 3.734375l-3.734375 0zm20.886597 0l-3.28125 0l0 -20.90625q-1.1875 1.125 -3.109375 2.265625q-1.921875 1.125 -3.453125 1.6875l0 -3.171875q2.75 -1.296875 4.8125 -3.125q2.0625 -1.84375 2.921875 -3.578125l2.109375 0l0 26.828125zm8.400757 -13.171875q0 -4.75 0.96875 -7.625q0.984375 -2.890625 2.90625 -4.453125q1.921875 -1.578125 4.84375 -1.578125q2.140625 0 3.765625 0.875q1.625 0.859375 2.671875 2.5q1.0625 1.625 1.65625 3.96875q0.609375 2.328125 0.609375 6.3125q0 4.703125 -0.96875 7.59375q-0.953125 2.875 -2.875 4.453125q-1.921875 1.578125 -4.859375 1.578125q-3.875 0 -6.078125 -2.765625q-2.640625 -3.34375 -2.640625 -10.859375zm3.375 0q0 6.578125 1.53125 8.765625q1.546875 2.171875 3.8125 2.171875q2.25 0 3.796875 -2.1875q1.546875 -2.1875 1.546875 -8.75q0 -6.609375 -1.546875 -8.765625q-1.546875 -2.171875 -3.84375 -2.171875q-2.25 0 -3.609375 1.90625q-1.6875 2.453125 -1.6875 9.03125z" fill-rule="nonzero"/><path fill="#000000" d="m561.1792 297.0054q0 -4.75 0.96875 -7.625q0.984375 -2.890625 2.90625 -4.453125q1.921875 -1.578125 4.84375 -1.578125q2.140625 0 3.765625 0.875q1.625 0.859375 2.671875 2.5q1.0625 1.625 1.65625 3.96875q0.609375 2.328125 0.609375 6.3125q0 4.703125 -0.96875 7.59375q-0.953125 2.875 -2.875 4.453125q-1.921875 1.578125 -4.859375 1.578125q-3.875 0 -6.078125 -2.765625q-2.640625 -3.34375 -2.640625 -10.859375zm3.375 0q0 6.578125 1.53125 8.765625q1.546875 2.171875 3.8125 2.171875q2.25 0 3.796875 -2.1875q1.546875 -2.1875 1.546875 -8.75q0 -6.609375 -1.546875 -8.765625q-1.546875 -2.171875 -3.84375 -2.171875q-2.25 0 -3.609375 1.90625q-1.6875 2.453125 -1.6875 9.03125zm19.228882 13.171875l0 -3.734375l3.734375 0l0 3.734375l-3.734375 0zm19.042847 0l0 -6.390625l-11.59375 0l0 -3.015625l12.203125 -17.3125l2.671875 0l0 17.3125l3.609375 0l0 3.015625l-3.609375 0l0 6.390625l-3.28125 0zm0 -9.40625l0 -12.046875l-8.359375 12.046875l8.359375 0zm15.291382 -5.078125q-2.03125 -0.75 -3.015625 -2.140625q-0.984375 -1.390625 -0.984375 -3.3125q0 -2.921875 2.09375 -4.90625q2.09375 -1.984375 5.578125 -1.984375q3.5 0 5.625 2.03125q2.140625 2.03125 2.140625 4.953125q0 1.859375 -0.984375 3.234375q-0.96875 1.375 -2.953125 2.125q2.453125 0.796875 3.734375 2.59375q1.296875 1.78125 1.296875 4.25q0 3.4375 -2.4375 5.765625q-2.421875 2.328125 -6.375 2.328125q-3.953125 0 -6.375 -2.34375q-2.421875 -2.34375 -2.421875 -5.84375q0 -2.59375 1.3125 -4.359375q1.328125 -1.765625 3.765625 -2.390625zm-0.65625 -5.5625q0 1.890625 1.21875 3.09375q1.234375 1.203125 3.171875 1.203125q1.90625 0 3.109375 -1.1875q1.21875 -1.203125 1.21875 -2.921875q0 -1.8125 -1.25 -3.03125q-1.25 -1.234375 -3.109375 -1.234375q-1.875 0 -3.125 1.203125q-1.234375 1.203125 -1.234375 2.875zm-1.046875 12.34375q0 1.390625 0.65625 2.703125q0.671875 1.3125 1.984375 2.046875q1.3125 0.71875 2.828125 0.71875q2.34375 0 3.875 -1.515625q1.53125 -1.515625 1.53125 -3.84375q0 -2.375 -1.578125 -3.921875q-1.578125 -1.546875 -3.9375 -1.546875q-2.328125 0 -3.84375 1.53125q-1.515625 1.53125 -1.515625 3.828125z" fill-rule="nonzero"/><path fill="#000000" d="m724.046 307.02103l0 3.15625l-17.671875 0q-0.03125 -1.1875 0.390625 -2.28125q0.671875 -1.796875 2.15625 -3.546875q1.484375 -1.75 4.296875 -4.046875q4.359375 -3.578125 5.890625 -5.65625q1.53125 -2.09375 1.53125 -3.953125q0 -1.953125 -1.40625 -3.28125q-1.390625 -1.34375 -3.625 -1.34375q-2.375 0 -3.796875 1.421875q-1.421875 1.421875 -1.4375 3.9375l-3.375 -0.34375q0.34375 -3.78125 2.59375 -5.75q2.265625 -1.984375 6.078125 -1.984375q3.84375 0 6.078125 2.140625q2.25 2.125 2.25 5.28125q0 1.59375 -0.65625 3.15625q-0.65625 1.546875 -2.171875 3.265625q-1.515625 1.703125 -5.0625 4.6875q-2.953125 2.484375 -3.796875 3.375q-0.828125 0.875 -1.375 1.765625l13.109375 0zm5.353882 3.15625l0 -3.734375l3.734375 0l0 3.734375l-3.734375 0zm19.042847 0l0 -6.390625l-11.59375 0l0 -3.015625l12.203125 -17.3125l2.671875 0l0 17.3125l3.609375 0l0 3.015625l-3.609375 0l0 6.390625l-3.28125 0zm0 -9.40625l0 -12.046875l-8.359375 12.046875l8.359375 0zm10.744507 3.234375l3.140625 -0.296875q0.40625 2.21875 1.53125 3.234375q1.140625 1.0 2.90625 1.0q1.515625 0 2.65625 -0.6875q1.140625 -0.703125 1.859375 -1.859375q0.734375 -1.15625 1.21875 -3.125q0.5 -1.96875 0.5 -4.015625q0 -0.21875 -0.015625 -0.65625q-0.984375 1.5625 -2.6875 2.546875q-1.703125 0.96875 -3.703125 0.96875q-3.3125 0 -5.609375 -2.40625q-2.296875 -2.40625 -2.296875 -6.34375q0 -4.0625 2.390625 -6.53125q2.40625 -2.484375 6.015625 -2.484375q2.609375 0 4.765625 1.40625q2.15625 1.40625 3.28125 4.0q1.125 2.59375 1.125 7.515625q0 5.125 -1.125 8.15625q-1.109375 3.03125 -3.3125 4.625q-2.1875 1.578125 -5.140625 1.578125q-3.125 0 -5.125 -1.734375q-1.984375 -1.75 -2.375 -4.890625zm13.421875 -11.796875q0 -2.828125 -1.5 -4.484375q-1.5 -1.65625 -3.609375 -1.65625q-2.1875 0 -3.8125 1.78125q-1.625 1.78125 -1.625 4.625q0 2.5625 1.53125 4.15625q1.546875 1.59375 3.8125 1.59375q2.28125 0 3.734375 -1.59375q1.46875 -1.59375 1.46875 -4.421875z" fill-rule="nonzero"/><path fill="#000000" d="m857.45966 295.6929q-2.03125 -0.75 -3.015625 -2.140625q-0.984375 -1.390625 -0.984375 -3.3125q0 -2.921875 2.09375 -4.90625q2.09375 -1.984375 5.578125 -1.984375q3.5 0 5.625 2.03125q2.140625 2.03125 2.140625 4.953125q0 1.859375 -0.984375 3.234375q-0.96875 1.375 -2.953125 2.125q2.453125 0.796875 3.734375 2.59375q1.296875 1.78125 1.296875 4.25q0 3.4375 -2.4375 5.765625q-2.421875 2.328125 -6.375 2.328125q-3.953125 0 -6.375 -2.34375q-2.421875 -2.34375 -2.421875 -5.84375q0 -2.59375 1.3125 -4.359375q1.328125 -1.765625 3.765625 -2.390625zm-0.65625 -5.5625q0 1.890625 1.21875 3.09375q1.234375 1.203125 3.171875 1.203125q1.90625 0 3.109375 -1.1875q1.21875 -1.203125 1.21875 -2.921875q0 -1.8125 -1.25 -3.03125q-1.25 -1.234375 -3.109375 -1.234375q-1.875 0 -3.125 1.203125q-1.234375 1.203125 -1.234375 2.875zm-1.046875 12.34375q0 1.390625 0.65625 2.703125q0.671875 1.3125 1.984375 2.046875q1.3125 0.71875 2.828125 0.71875q2.34375 0 3.875 -1.515625q1.53125 -1.515625 1.53125 -3.84375q0 -2.375 -1.578125 -3.921875q-1.578125 -1.546875 -3.9375 -1.546875q-2.328125 0 -3.84375 1.53125q-1.515625 1.53125 -1.515625 3.828125zm19.260132 7.703125l0 -3.734375l3.734375 0l0 3.734375l-3.734375 0zm9.027222 -6.171875l3.140625 -0.296875q0.40625 2.21875 1.53125 3.234375q1.140625 1.0 2.90625 1.0q1.515625 0 2.65625 -0.6875q1.140625 -0.703125 1.859375 -1.859375q0.734375 -1.15625 1.21875 -3.125q0.5 -1.96875 0.5 -4.015625q0 -0.21875 -0.015625 -0.65625q-0.984375 1.5625 -2.6875 2.546875q-1.703125 0.96875 -3.703125 0.96875q-3.3125 0 -5.609375 -2.40625q-2.296875 -2.40625 -2.296875 -6.34375q0 -4.0625 2.390625 -6.53125q2.40625 -2.484375 6.015625 -2.484375q2.609375 0 4.765625 1.40625q2.15625 1.40625 3.28125 4.0q1.125 2.59375 1.125 7.515625q0 5.125 -1.125 8.15625q-1.109375 3.03125 -3.3125 4.625q-2.1875 1.578125 -5.140625 1.578125q-3.125 0 -5.125 -1.734375q-1.984375 -1.75 -2.375 -4.890625zm13.421875 -11.796875q0 -2.828125 -1.5 -4.484375q-1.5 -1.65625 -3.609375 -1.65625q-2.1875 0 -3.8125 1.78125q-1.625 1.78125 -1.625 4.625q0 2.5625 1.53125 4.15625q1.546875 1.59375 3.8125 1.59375q2.28125 0 3.734375 -1.59375q1.46875 -1.59375 1.46875 -4.421875zm17.353882 17.96875l0 -6.390625l-11.59375 0l0 -3.015625l12.203125 -17.3125l2.671875 0l0 17.3125l3.609375 0l0 3.015625l-3.609375 0l0 6.390625l-3.28125 0zm0 -9.40625l0 -12.046875l-8.359375 12.046875l8.359375 0z" fill-rule="nonzero"/><path fill="#000000" d="m173.43349 423.13092l3.25 -0.5q0.28125 1.9375 1.515625 2.984375q1.25 1.03125 3.5 1.03125q2.265625 0 3.359375 -0.90625q1.09375 -0.921875 1.09375 -2.171875q0 -1.109375 -0.96875 -1.75q-0.671875 -0.4375 -3.359375 -1.109375q-3.609375 -0.90625 -5.0 -1.5625q-1.390625 -0.671875 -2.125 -1.84375q-0.71875 -1.1875 -0.71875 -2.609375q0 -1.296875 0.59375 -2.390625q0.59375 -1.109375 1.625 -1.84375q0.765625 -0.5625 2.078125 -0.953125q1.328125 -0.390625 2.84375 -0.390625q2.265625 0 3.984375 0.65625q1.734375 0.65625 2.546875 1.78125q0.828125 1.125 1.140625 3.0l-3.21875 0.4375q-0.21875 -1.5 -1.265625 -2.328125q-1.046875 -0.84375 -2.953125 -0.84375q-2.265625 0 -3.234375 0.75q-0.96875 0.734375 -0.96875 1.75q0 0.625 0.40625 1.140625q0.40625 0.53125 1.265625 0.875q0.484375 0.1875 2.890625 0.84375q3.484375 0.921875 4.859375 1.515625q1.375 0.59375 2.15625 1.734375q0.78125 1.125 0.78125 2.796875q0 1.640625 -0.953125 3.09375q-0.953125 1.453125 -2.765625 2.25q-1.796875 0.78125 -4.078125 0.78125q-3.765625 0 -5.75 -1.5625q-1.984375 -1.578125 -2.53125 -4.65625zm32.664062 5.78125l0 -2.84375q-2.25 3.28125 -6.140625 3.28125q-1.703125 0 -3.203125 -0.65625q-1.484375 -0.65625 -2.203125 -1.640625q-0.71875 -1.0 -1.0 -2.4375q-0.203125 -0.96875 -0.203125 -3.0625l0 -12.0l3.28125 0l0 10.734375q0 2.578125 0.203125 3.46875q0.296875 1.296875 1.296875 2.03125q1.015625 0.734375 2.484375 0.734375q1.484375 0 2.765625 -0.75q1.296875 -0.765625 1.828125 -2.0625q0.546875 -1.296875 0.546875 -3.78125l0 -10.375l3.28125 0l0 19.359375l-2.9375 0zm11.103882 0l-3.046875 0l0 -26.71875l3.28125 0l0 9.53125q2.078125 -2.609375 5.3125 -2.609375q1.78125 0 3.375 0.71875q1.59375 0.71875 2.625 2.03125q1.03125 1.296875 1.609375 3.140625q0.59375 1.84375 0.59375 3.9375q0 4.96875 -2.46875 7.6875q-2.453125 2.71875 -5.90625 2.71875q-3.421875 0 -5.375 -2.859375l0 2.421875zm-0.03125 -9.828125q0 3.484375 0.9375 5.03125q1.5625 2.53125 4.203125 2.53125q2.140625 0 3.703125 -1.859375q1.578125 -1.875 1.578125 -5.578125q0 -3.78125 -1.5 -5.578125q-1.5 -1.8125 -3.640625 -1.8125q-2.15625 0 -3.71875 1.875q-1.5625 1.859375 -1.5625 5.390625zm16.494507 1.8125l0 -3.296875l10.078125 0l0 3.296875l-10.078125 0zm12.383682 2.234375l3.25 -0.5q0.28125 1.9375 1.515625 2.984375q1.25 1.03125 3.5 1.03125q2.265625 0 3.359375 -0.90625q1.09375 -0.921875 1.09375 -2.171875q0 -1.109375 -0.96875 -1.75q-0.671875 -0.4375 -3.359375 -1.109375q-3.609375 -0.90625 -5.0 -1.5625q-1.390625 -0.671875 -2.125 -1.84375q-0.71875 -1.1875 -0.71875 -2.609375q0 -1.296875 0.59375 -2.390625q0.59375 -1.109375 1.625 -1.84375q0.765625 -0.5625 2.078125 -0.953125q1.328125 -0.390625 2.84375 -0.390625q2.265625 0 3.984375 0.65625q1.734375 0.65625 2.546875 1.78125q0.828125 1.125 1.140625 3.0l-3.21875 0.4375q-0.21875 -1.5 -1.265625 -2.328125q-1.046875 -0.84375 -2.953125 -0.84375q-2.265625 0 -3.234375 0.75q-0.96875 0.734375 -0.96875 1.75q0 0.625 0.40625 1.140625q0.40625 0.53125 1.265625 0.875q0.484375 0.1875 2.890625 0.84375q3.484375 0.921875 4.859375 1.515625q1.375 0.59375 2.15625 1.734375q0.78125 1.125 0.78125 2.796875q0 1.640625 -0.953125 3.09375q-0.953125 1.453125 -2.765625 2.25q-1.796875 0.78125 -4.078125 0.78125q-3.765625 0 -5.75 -1.5625q-1.984375 -1.578125 -2.53125 -4.65625zm32.617188 3.390625q-1.828125 1.546875 -3.515625 2.1875q-1.6875 0.640625 -3.609375 0.640625q-3.1875 0 -4.90625 -1.546875q-1.71875 -1.5625 -1.71875 -4.0q0 -1.421875 0.640625 -2.59375q0.65625 -1.171875 1.703125 -1.875q1.046875 -0.71875 2.359375 -1.078125q0.96875 -0.265625 2.921875 -0.5q3.96875 -0.46875 5.84375 -1.125q0.03125 -0.671875 0.03125 -0.859375q0 -2.0 -0.9375 -2.828125q-1.25 -1.109375 -3.734375 -1.109375q-2.3125 0 -3.421875 0.8125q-1.09375 0.8125 -1.625 2.875l-3.21875 -0.4375q0.4375 -2.0625 1.4375 -3.328125q1.015625 -1.265625 2.90625 -1.953125q1.890625 -0.6875 4.390625 -0.6875q2.484375 0 4.03125 0.59375q1.546875 0.578125 2.28125 1.46875q0.734375 0.875 1.015625 2.21875q0.171875 0.84375 0.171875 3.03125l0 4.375q0 4.578125 0.203125 5.796875q0.21875 1.203125 0.828125 2.3125l-3.421875 0q-0.515625 -1.015625 -0.65625 -2.390625zm-0.28125 -7.328125q-1.78125 0.734375 -5.359375 1.25q-2.015625 0.28125 -2.859375 0.65625q-0.828125 0.359375 -1.296875 1.0625q-0.453125 0.703125 -0.453125 1.5625q0 1.3125 0.984375 2.1875q1.0 0.875 2.921875 0.875q1.890625 0 3.359375 -0.828125q1.484375 -0.84375 2.1875 -2.28125q0.515625 -1.109375 0.515625 -3.28125l0 -1.203125zm8.400757 9.71875l0 -19.359375l2.9375 0l0 2.71875q0.921875 -1.421875 2.421875 -2.28125q1.515625 -0.875 3.453125 -0.875q2.15625 0 3.53125 0.890625q1.375 0.890625 1.9375 2.5q2.296875 -3.390625 5.96875 -3.390625q2.890625 0 4.4375 1.59375q1.546875 1.59375 1.546875 4.921875l0 13.28125l-3.265625 0l0 -12.1875q0 -1.96875 -0.328125 -2.828125q-0.3125 -0.875 -1.15625 -1.40625q-0.828125 -0.53125 -1.953125 -0.53125q-2.046875 0 -3.390625 1.359375q-1.34375 1.359375 -1.34375 4.34375l0 11.25l-3.28125 0l0 -12.578125q0 -2.1875 -0.8125 -3.28125q-0.796875 -1.09375 -2.625 -1.09375q-1.375 0 -2.5625 0.734375q-1.171875 0.71875 -1.703125 2.125q-0.53125 1.40625 -0.53125 4.046875l0 10.046875l-3.28125 0zm31.094635 7.421875l0 -26.78125l3.0 0l0 2.515625q1.046875 -1.46875 2.375 -2.203125q1.34375 -0.75 3.234375 -0.75q2.484375 0 4.375 1.28125q1.890625 1.265625 2.859375 3.59375q0.96875 2.328125 0.96875 5.09375q0 2.96875 -1.0625 5.359375q-1.0625 2.375 -3.109375 3.640625q-2.03125 1.265625 -4.265625 1.265625q-1.640625 0 -2.953125 -0.6875q-1.296875 -0.703125 -2.140625 -1.75l0 9.421875l-3.28125 0zm2.984375 -16.984375q0 3.734375 1.5 5.515625q1.515625 1.78125 3.671875 1.78125q2.1875 0 3.734375 -1.84375q1.5625 -1.84375 1.5625 -5.734375q0 -3.703125 -1.515625 -5.53125q-1.515625 -1.84375 -3.640625 -1.84375q-2.09375 0 -3.703125 1.953125q-1.609375 1.953125 -1.609375 5.703125zm17.713257 9.5625l0 -26.71875l3.28125 0l0 26.71875l-3.28125 0zm21.621216 -6.234375l3.375 0.421875q-0.796875 2.96875 -2.96875 4.609375q-2.15625 1.640625 -5.53125 1.640625q-4.25 0 -6.75 -2.609375q-2.484375 -2.625 -2.484375 -7.34375q0 -4.890625 2.515625 -7.578125q2.515625 -2.703125 6.53125 -2.703125q3.890625 0 6.34375 2.640625q2.453125 2.640625 2.453125 7.4375q0 0.296875 -0.015625 0.875l-14.4375 0q0.1875 3.1875 1.8125 4.890625q1.625 1.6875 4.046875 1.6875q1.796875 0 3.078125 -0.9375q1.28125 -0.953125 2.03125 -3.03125zm-10.78125 -5.296875l10.8125 0q-0.21875 -2.453125 -1.234375 -3.671875q-1.578125 -1.890625 -4.078125 -1.890625q-2.25 0 -3.796875 1.515625q-1.53125 1.5 -1.703125 4.046875z" fill-rule="nonzero"/><path fill="#000000" d="m424.26553 402.08405q3.875 0 6.0625 2.765625q2.609375 3.28125 2.609375 10.890625q0 7.578125 -2.625 10.890625q-2.171875 2.734375 -6.046875 2.734375q-3.90625 0 -6.296875 -3.0q-2.390625 -3.0 -2.390625 -10.6875q0 -7.546875 2.625 -10.859375q2.171875 -2.734375 6.0625 -2.734375zm0 4.25q-0.9375 0 -1.671875 0.59375q-0.71875 0.59375 -1.125 2.125q-0.53125 1.984375 -0.53125 6.6875q0 4.703125 0.46875 6.46875q0.484375 1.75 1.203125 2.328125q0.71875 0.578125 1.65625 0.578125q0.921875 0 1.640625 -0.578125q0.734375 -0.59375 1.140625 -2.125q0.53125 -1.96875 0.53125 -6.671875q0 -4.703125 -0.484375 -6.453125q-0.46875 -1.765625 -1.1875 -2.359375q-0.71875 -0.59375 -1.640625 -0.59375zm13.182007 22.578125l0 -5.125l5.125 0l0 5.125l-5.125 0zm17.949097 -26.828125q3.875 0 6.0625 2.765625q2.609375 3.28125 2.609375 10.890625q0 7.578125 -2.625 10.890625q-2.171875 2.734375 -6.046875 2.734375q-3.90625 0 -6.296875 -3.0q-2.390625 -3.0 -2.390625 -10.6875q0 -7.546875 2.625 -10.859375q2.171875 -2.734375 6.0625 -2.734375zm0 4.25q-0.9375 0 -1.671875 0.59375q-0.71875 0.59375 -1.125 2.125q-0.53125 1.984375 -0.53125 6.6875q0 4.703125 0.46875 6.46875q0.484375 1.75 1.203125 2.328125q0.71875 0.578125 1.65625 0.578125q0.921875 0 1.640625 -0.578125q0.734375 -0.59375 1.140625 -2.125q0.53125 -1.96875 0.53125 -6.671875q0 -4.703125 -0.484375 -6.453125q-0.46875 -1.765625 -1.1875 -2.359375q-0.71875 -0.59375 -1.640625 -0.59375zm12.197632 16.40625l4.96875 -0.546875q0.171875 1.5 0.9375 2.234375q0.765625 0.734375 2.03125 0.734375q1.578125 0 2.6875 -1.453125q1.125 -1.46875 1.4375 -6.0625q-1.9375 2.25 -4.84375 2.25q-3.140625 0 -5.4375 -2.4375q-2.28125 -2.4375 -2.28125 -6.34375q0 -4.0625 2.40625 -6.546875q2.421875 -2.484375 6.15625 -2.484375q4.0625 0 6.671875 3.140625q2.609375 3.140625 2.609375 10.34375q0 7.328125 -2.71875 10.578125q-2.71875 3.234375 -7.078125 3.234375q-3.125 0 -5.0625 -1.65625q-1.9375 -1.671875 -2.484375 -4.984375zm11.59375 -11.203125q0 -2.46875 -1.140625 -3.828125q-1.125 -1.375 -2.625 -1.375q-1.421875 0 -2.359375 1.125q-0.9375 1.109375 -0.9375 3.65625q0 2.59375 1.015625 3.8125q1.015625 1.203125 2.546875 1.203125q1.484375 0 2.484375 -1.15625q1.015625 -1.171875 1.015625 -3.4375z" fill-rule="nonzero"/><path fill="#000000" d="m569.8823 402.08405q3.875 0 6.0625 2.765625q2.609375 3.28125 2.609375 10.890625q0 7.578125 -2.625 10.890625q-2.171875 2.734375 -6.046875 2.734375q-3.90625 0 -6.296875 -3.0q-2.390625 -3.0 -2.390625 -10.6875q0 -7.546875 2.625 -10.859375q2.171875 -2.734375 6.0625 -2.734375zm0 4.25q-0.9375 0 -1.671875 0.59375q-0.71875 0.59375 -1.125 2.125q-0.53125 1.984375 -0.53125 6.6875q0 4.703125 0.46875 6.46875q0.484375 1.75 1.203125 2.328125q0.71875 0.578125 1.65625 0.578125q0.921875 0 1.640625 -0.578125q0.734375 -0.59375 1.140625 -2.125q0.53125 -1.96875 0.53125 -6.671875q0 -4.703125 -0.484375 -6.453125q-0.46875 -1.765625 -1.1875 -2.359375q-0.71875 -0.59375 -1.640625 -0.59375zm13.182007 22.578125l0 -5.125l5.125 0l0 5.125l-5.125 0zm26.574097 -4.75l0 4.75l-17.953125 0q0.296875 -2.703125 1.75 -5.109375q1.46875 -2.421875 5.765625 -6.40625q3.46875 -3.234375 4.25 -4.375q1.0625 -1.59375 1.0625 -3.140625q0 -1.703125 -0.921875 -2.625q-0.921875 -0.921875 -2.546875 -0.921875q-1.609375 0 -2.5625 0.96875q-0.9375 0.953125 -1.078125 3.203125l-5.109375 -0.515625q0.453125 -4.21875 2.859375 -6.0625q2.40625 -1.84375 6.015625 -1.84375q3.953125 0 6.203125 2.140625q2.265625 2.125 2.265625 5.296875q0 1.796875 -0.640625 3.4375q-0.640625 1.625 -2.046875 3.40625q-0.9375 1.1875 -3.359375 3.421875q-2.421875 2.21875 -3.078125 2.953125q-0.640625 0.71875 -1.03125 1.421875l10.15625 0zm12.135132 -22.078125q3.875 0 6.0625 2.765625q2.609375 3.28125 2.609375 10.890625q0 7.578125 -2.625 10.890625q-2.171875 2.734375 -6.046875 2.734375q-3.90625 0 -6.296875 -3.0q-2.390625 -3.0 -2.390625 -10.6875q0 -7.546875 2.625 -10.859375q2.171875 -2.734375 6.0625 -2.734375zm0 4.25q-0.9375 0 -1.671875 0.59375q-0.71875 0.59375 -1.125 2.125q-0.53125 1.984375 -0.53125 6.6875q0 4.703125 0.46875 6.46875q0.484375 1.75 1.203125 2.328125q0.71875 0.578125 1.65625 0.578125q0.921875 0 1.640625 -0.578125q0.734375 -0.59375 1.140625 -2.125q0.53125 -1.96875 0.53125 -6.671875q0 -4.703125 -0.484375 -6.453125q-0.46875 -1.765625 -1.1875 -2.359375q-0.71875 -0.59375 -1.640625 -0.59375z" fill-rule="nonzero"/><path fill="#000000" d="m715.49915 402.08405q3.875 0 6.0625 2.765625q2.609375 3.28125 2.609375 10.890625q0 7.578125 -2.625 10.890625q-2.171875 2.734375 -6.046875 2.734375q-3.90625 0 -6.296875 -3.0q-2.390625 -3.0 -2.390625 -10.6875q0 -7.546875 2.625 -10.859375q2.171875 -2.734375 6.0625 -2.734375zm0 4.25q-0.9375 0 -1.671875 0.59375q-0.71875 0.59375 -1.125 2.125q-0.53125 1.984375 -0.53125 6.6875q0 4.703125 0.46875 6.46875q0.484375 1.75 1.203125 2.328125q0.71875 0.578125 1.65625 0.578125q0.921875 0 1.640625 -0.578125q0.734375 -0.59375 1.140625 -2.125q0.53125 -1.96875 0.53125 -6.671875q0 -4.703125 -0.484375 -6.453125q-0.46875 -1.765625 -1.1875 -2.359375q-0.71875 -0.59375 -1.640625 -0.59375zm13.182007 22.578125l0 -5.125l5.125 0l0 5.125l-5.125 0zm9.355347 -6.875l5.109375 -0.53125q0.21875 1.734375 1.28125 2.75q1.078125 1.015625 2.484375 1.015625q1.609375 0 2.71875 -1.296875q1.109375 -1.3125 1.109375 -3.9375q0 -2.46875 -1.109375 -3.6875q-1.09375 -1.234375 -2.859375 -1.234375q-2.203125 0 -3.953125 1.953125l-4.15625 -0.609375l2.625 -13.90625l13.546875 0l0 4.796875l-9.671875 0l-0.796875 4.53125q1.71875 -0.84375 3.5 -0.84375q3.40625 0 5.765625 2.484375q2.375 2.46875 2.375 6.421875q0 3.296875 -1.90625 5.890625q-2.609375 3.53125 -7.234375 3.53125q-3.703125 0 -6.046875 -1.984375q-2.328125 -1.984375 -2.78125 -5.34375zm33.79138 6.875l-5.125 0l0 -19.296875q-2.796875 2.625 -6.609375 3.875l0 -4.640625q2.0 -0.65625 4.34375 -2.484375q2.359375 -1.84375 3.234375 -4.28125l4.15625 0l0 26.828125z" fill-rule="nonzero"/><path fill="#000000" d="m865.5534 428.91217l-5.125 0l0 -19.296875q-2.796875 2.625 -6.609375 3.875l0 -4.640625q2.0 -0.65625 4.34375 -2.484375q2.359375 -1.84375 3.234375 -4.28125l4.15625 0l0 26.828125zm8.744507 0l0 -5.125l5.125 0l0 5.125l-5.125 0zm17.949097 -26.828125q3.875 0 6.0625 2.765625q2.609375 3.28125 2.609375 10.890625q0 7.578125 -2.625 10.890625q-2.171875 2.734375 -6.046875 2.734375q-3.90625 0 -6.296875 -3.0q-2.390625 -3.0 -2.390625 -10.6875q0 -7.546875 2.625 -10.859375q2.171875 -2.734375 6.0625 -2.734375zm0 4.25q-0.9375 0 -1.671875 0.59375q-0.71875 0.59375 -1.125 2.125q-0.53125 1.984375 -0.53125 6.6875q0 4.703125 0.46875 6.46875q0.484375 1.75 1.203125 2.328125q0.71875 0.578125 1.65625 0.578125q0.921875 0 1.640625 -0.578125q0.734375 -0.59375 1.140625 -2.125q0.53125 -1.96875 0.53125 -6.671875q0 -4.703125 -0.484375 -6.453125q-0.46875 -1.765625 -1.1875 -2.359375q-0.71875 -0.59375 -1.640625 -0.59375zm22.135132 22.578125l0 -5.375l-10.9375 0l0 -4.484375l11.59375 -16.96875l4.3125 0l0 16.953125l3.3125 0l0 4.5l-3.3125 0l0 5.375l-4.96875 0zm0 -9.875l0 -9.140625l-6.140625 9.140625l6.140625 0z" fill-rule="nonzero"/><path fill="#000000" d="m51.43402 607.0145l0 -26.71875l5.40625 0l0 26.71875l-5.40625 0zm10.558456 -26.71875l10.6875 0q3.171875 0 4.71875 0.265625q1.5625 0.265625 2.78125 1.109375q1.234375 0.828125 2.046875 2.234375q0.828125 1.390625 0.828125 3.109375q0 1.875 -1.015625 3.453125q-1.0 1.5625 -2.734375 2.34375q2.4375 0.71875 3.75 2.4375q1.3125 1.703125 1.3125 4.015625q0 1.828125 -0.84375 3.546875q-0.84375 1.71875 -2.3125 2.75q-1.46875 1.03125 -3.609375 1.265625q-1.359375 0.15625 -6.515625 0.1875l-9.09375 0l0 -26.71875zm5.390625 4.453125l0 6.171875l3.546875 0q3.140625 0 3.90625 -0.09375q1.390625 -0.15625 2.1875 -0.953125q0.796875 -0.796875 0.796875 -2.09375q0 -1.234375 -0.6875 -2.0q-0.6875 -0.78125 -2.03125 -0.953125q-0.8125 -0.078125 -4.609375 -0.078125l-3.109375 0zm0 10.625l0 7.140625l5.0 0q2.921875 0 3.703125 -0.171875q1.203125 -0.21875 1.953125 -1.0625q0.75 -0.84375 0.75 -2.265625q0 -1.203125 -0.578125 -2.03125q-0.578125 -0.84375 -1.6875 -1.21875q-1.09375 -0.390625 -4.78125 -0.390625l-4.359375 0zm20.175934 2.953125l5.25 -0.515625q0.484375 2.640625 1.921875 3.890625q1.453125 1.234375 3.921875 1.234375q2.59375 0 3.921875 -1.09375q1.328125 -1.109375 1.328125 -2.59375q0 -0.953125 -0.5625 -1.609375q-0.5625 -0.671875 -1.9375 -1.15625q-0.953125 -0.328125 -4.328125 -1.171875q-4.328125 -1.078125 -6.078125 -2.640625q-2.46875 -2.203125 -2.46875 -5.375q0 -2.046875 1.15625 -3.8125q1.15625 -1.78125 3.328125 -2.703125q2.1875 -0.9375 5.265625 -0.9375q5.03125 0 7.578125 2.203125q2.546875 2.203125 2.671875 5.890625l-5.390625 0.234375q-0.359375 -2.0625 -1.5 -2.953125q-1.125 -0.90625 -3.40625 -0.90625q-2.359375 0 -3.6875 0.953125q-0.859375 0.625 -0.859375 1.671875q0 0.9375 0.8125 1.609375q1.015625 0.859375 4.953125 1.796875q3.9375 0.921875 5.8125 1.921875q1.890625 0.984375 2.953125 2.71875q1.078125 1.71875 1.078125 4.25q0 2.296875 -1.28125 4.3125q-1.28125 2.0 -3.609375 2.96875q-2.328125 0.96875 -5.8125 0.96875q-5.0625 0 -7.78125 -2.328125q-2.71875 -2.34375 -3.25 -6.828125z" fill-rule="nonzero"/><path fill="#000000" d="m248.15775 547.6471l0 -16.8125l-2.90625 0l0 -2.546875l2.90625 0l0 -2.0625q0 -1.9375 0.34375 -2.890625q0.46875 -1.28125 1.65625 -2.0625q1.203125 -0.796875 3.359375 -0.796875q1.375 0 3.0625 0.328125l-0.5 2.859375q-1.015625 -0.1875 -1.9375 -0.1875q-1.484375 0 -2.109375 0.640625q-0.625 0.640625 -0.625 2.390625l0 1.78125l3.78125 0l0 2.546875l-3.78125 0l0 16.8125l-3.25 0zm22.261566 0l0 -2.84375q-2.25 3.28125 -6.140625 3.28125q-1.703125 0 -3.203125 -0.65625q-1.484375 -0.65625 -2.203125 -1.640625q-0.71875 -1.0 -1.0 -2.4375q-0.203125 -0.96875 -0.203125 -3.0625l0 -12.0l3.28125 0l0 10.734375q0 2.578125 0.203125 3.46875q0.296875 1.296875 1.296875 2.03125q1.015625 0.734375 2.484375 0.734375q1.484375 0 2.765625 -0.75q1.296875 -0.765625 1.828125 -2.0625q0.546875 -1.296875 0.546875 -3.78125l0 -10.375l3.28125 0l0 19.359375l-2.9375 0zm8.010132 0l0 -26.71875l3.28125 0l0 26.71875l-3.28125 0zm8.293121 0l0 -26.71875l3.28125 0l0 26.71875l-3.28125 0z" fill-rule="nonzero"/><path fill="#000000" d="m420.60928 533.1627q-2.03125 -0.75 -3.015625 -2.140625q-0.984375 -1.390625 -0.984375 -3.3125q0 -2.921875 2.09375 -4.90625q2.09375 -1.984375 5.578125 -1.984375q3.5 0 5.625 2.03125q2.140625 2.03125 2.140625 4.953125q0 1.859375 -0.984375 3.234375q-0.96875 1.375 -2.953125 2.125q2.453125 0.796875 3.734375 2.59375q1.296875 1.78125 1.296875 4.25q0 3.4375 -2.4375 5.765625q-2.421875 2.328125 -6.375 2.328125q-3.953125 0 -6.375 -2.34375q-2.421875 -2.34375 -2.421875 -5.84375q0 -2.59375 1.3125 -4.359375q1.328125 -1.765625 3.765625 -2.390625zm-0.65625 -5.5625q0 1.890625 1.21875 3.09375q1.234375 1.203125 3.171875 1.203125q1.90625 0 3.109375 -1.1875q1.21875 -1.203125 1.21875 -2.921875q0 -1.8125 -1.25 -3.03125q-1.25 -1.234375 -3.109375 -1.234375q-1.875 0 -3.125 1.203125q-1.234375 1.203125 -1.234375 2.875zm-1.046875 12.34375q0 1.390625 0.65625 2.703125q0.671875 1.3125 1.984375 2.046875q1.3125 0.71875 2.828125 0.71875q2.34375 0 3.875 -1.515625q1.53125 -1.515625 1.53125 -3.84375q0 -2.375 -1.578125 -3.921875q-1.578125 -1.546875 -3.9375 -1.546875q-2.328125 0 -3.84375 1.53125q-1.515625 1.53125 -1.515625 3.828125zm19.260132 7.703125l0 -3.734375l3.734375 0l0 3.734375l-3.734375 0zm20.886597 0l-3.28125 0l0 -20.90625q-1.1875 1.125 -3.109375 2.265625q-1.921875 1.125 -3.453125 1.6875l0 -3.171875q2.75 -1.296875 4.8125 -3.125q2.0625 -1.84375 2.921875 -3.578125l2.109375 0l0 26.828125zm8.400757 -13.171875q0 -4.75 0.96875 -7.625q0.984375 -2.890625 2.90625 -4.453125q1.921875 -1.578125 4.84375 -1.578125q2.140625 0 3.765625 0.875q1.625 0.859375 2.671875 2.5q1.0625 1.625 1.65625 3.96875q0.609375 2.328125 0.609375 6.3125q0 4.703125 -0.96875 7.59375q-0.953125 2.875 -2.875 4.453125q-1.921875 1.578125 -4.859375 1.578125q-3.875 0 -6.078125 -2.765625q-2.640625 -3.34375 -2.640625 -10.859375zm3.375 0q0 6.578125 1.53125 8.765625q1.546875 2.171875 3.8125 2.171875q2.25 0 3.796875 -2.1875q1.546875 -2.1875 1.546875 -8.75q0 -6.609375 -1.546875 -8.765625q-1.546875 -2.171875 -3.84375 -2.171875q-2.25 0 -3.609375 1.90625q-1.6875 2.453125 -1.6875 9.03125z" fill-rule="nonzero"/><path fill="#000000" d="m578.21045 527.4752l-3.265625 0.25q-0.4375 -1.9375 -1.234375 -2.8125q-1.34375 -1.390625 -3.28125 -1.390625q-1.578125 0 -2.765625 0.875q-1.546875 1.125 -2.4375 3.296875q-0.890625 2.15625 -0.921875 6.171875q1.171875 -1.796875 2.890625 -2.671875q1.71875 -0.875 3.59375 -0.875q3.28125 0 5.578125 2.421875q2.3125 2.40625 2.3125 6.234375q0 2.515625 -1.09375 4.671875q-1.078125 2.15625 -2.96875 3.3125q-1.890625 1.140625 -4.296875 1.140625q-4.109375 0 -6.703125 -3.015625q-2.578125 -3.015625 -2.578125 -9.9375q0 -7.75 2.859375 -11.265625q2.5 -3.0625 6.71875 -3.0625q3.15625 0 5.171875 1.765625q2.015625 1.765625 2.421875 4.890625zm-13.40625 11.515625q0 1.6875 0.71875 3.25q0.71875 1.546875 2.015625 2.359375q1.296875 0.8125 2.71875 0.8125q2.078125 0 3.5625 -1.671875q1.5 -1.6875 1.5 -4.5625q0 -2.78125 -1.484375 -4.375q-1.46875 -1.59375 -3.703125 -1.59375q-2.21875 0 -3.78125 1.59375q-1.546875 1.59375 -1.546875 4.1875zm18.978882 8.65625l0 -3.734375l3.734375 0l0 3.734375l-3.734375 0zm8.527222 -7.0l3.453125 -0.296875q0.375 2.515625 1.765625 3.796875q1.40625 1.265625 3.375 1.265625q2.359375 0 4.0 -1.78125q1.640625 -1.796875 1.640625 -4.75q0 -2.8125 -1.578125 -4.421875q-1.578125 -1.625 -4.125 -1.625q-1.578125 0 -2.859375 0.71875q-1.28125 0.71875 -2.0 1.859375l-3.09375 -0.390625l2.59375 -13.734375l13.296875 0l0 3.140625l-10.671875 0l-1.4375 7.171875q2.40625 -1.671875 5.046875 -1.671875q3.5 0 5.90625 2.421875q2.40625 2.421875 2.40625 6.234375q0 3.625 -2.109375 6.28125q-2.578125 3.234375 -7.015625 3.234375q-3.65625 0 -5.96875 -2.03125q-2.296875 -2.046875 -2.625 -5.421875zm20.760132 -6.171875q0 -4.75 0.96875 -7.625q0.984375 -2.890625 2.90625 -4.453125q1.921875 -1.578125 4.84375 -1.578125q2.140625 0 3.765625 0.875q1.625 0.859375 2.671875 2.5q1.0625 1.625 1.65625 3.96875q0.609375 2.328125 0.609375 6.3125q0 4.703125 -0.96875 7.59375q-0.953125 2.875 -2.875 4.453125q-1.921875 1.578125 -4.859375 1.578125q-3.875 0 -6.078125 -2.765625q-2.640625 -3.34375 -2.640625 -10.859375zm3.375 0q0 6.578125 1.53125 8.765625q1.546875 2.171875 3.8125 2.171875q2.25 0 3.796875 -2.1875q1.546875 -2.1875 1.546875 -8.75q0 -6.609375 -1.546875 -8.765625q-1.546875 -2.171875 -3.84375 -2.171875q-2.25 0 -3.609375 1.90625q-1.6875 2.453125 -1.6875 9.03125z" fill-rule="nonzero"/><path fill="#000000" d="m723.8273 527.4752l-3.265625 0.25q-0.4375 -1.9375 -1.234375 -2.8125q-1.34375 -1.390625 -3.28125 -1.390625q-1.578125 0 -2.765625 0.875q-1.546875 1.125 -2.4375 3.296875q-0.890625 2.15625 -0.921875 6.171875q1.171875 -1.796875 2.890625 -2.671875q1.71875 -0.875 3.59375 -0.875q3.28125 0 5.578125 2.421875q2.3125 2.40625 2.3125 6.234375q0 2.515625 -1.09375 4.671875q-1.078125 2.15625 -2.96875 3.3125q-1.890625 1.140625 -4.296875 1.140625q-4.109375 0 -6.703125 -3.015625q-2.578125 -3.015625 -2.578125 -9.9375q0 -7.75 2.859375 -11.265625q2.5 -3.0625 6.71875 -3.0625q3.15625 0 5.171875 1.765625q2.015625 1.765625 2.421875 4.890625zm-13.40625 11.515625q0 1.6875 0.71875 3.25q0.71875 1.546875 2.015625 2.359375q1.296875 0.8125 2.71875 0.8125q2.078125 0 3.5625 -1.671875q1.5 -1.6875 1.5 -4.5625q0 -2.78125 -1.484375 -4.375q-1.46875 -1.59375 -3.703125 -1.59375q-2.21875 0 -3.78125 1.59375q-1.546875 1.59375 -1.546875 4.1875zm18.978882 8.65625l0 -3.734375l3.734375 0l0 3.734375l-3.734375 0zm19.042847 0l0 -6.390625l-11.59375 0l0 -3.015625l12.203125 -17.3125l2.671875 0l0 17.3125l3.609375 0l0 3.015625l-3.609375 0l0 6.390625l-3.28125 0zm0 -9.40625l0 -12.046875l-8.359375 12.046875l8.359375 0zm10.244507 -3.765625q0 -4.75 0.96875 -7.625q0.984375 -2.890625 2.90625 -4.453125q1.921875 -1.578125 4.84375 -1.578125q2.140625 0 3.765625 0.875q1.625 0.859375 2.671875 2.5q1.0625 1.625 1.65625 3.96875q0.609375 2.328125 0.609375 6.3125q0 4.703125 -0.96875 7.59375q-0.953125 2.875 -2.875 4.453125q-1.921875 1.578125 -4.859375 1.578125q-3.875 0 -6.078125 -2.765625q-2.640625 -3.34375 -2.640625 -10.859375zm3.375 0q0 6.578125 1.53125 8.765625q1.546875 2.171875 3.8125 2.171875q2.25 0 3.796875 -2.1875q1.546875 -2.1875 1.546875 -8.75q0 -6.609375 -1.546875 -8.765625q-1.546875 -2.171875 -3.84375 -2.171875q-2.25 0 -3.609375 1.90625q-1.6875 2.453125 -1.6875 9.03125z" fill-rule="nonzero"/><path fill="#000000" d="m852.52216 540.7721l5.109375 -0.53125q0.21875 1.734375 1.28125 2.75q1.078125 1.015625 2.484375 1.015625q1.609375 0 2.71875 -1.296875q1.109375 -1.3125 1.109375 -3.9375q0 -2.46875 -1.109375 -3.6875q-1.09375 -1.234375 -2.859375 -1.234375q-2.203125 0 -3.953125 1.953125l-4.15625 -0.609375l2.625 -13.90625l13.546875 0l0 4.796875l-9.671875 0l-0.796875 4.53125q1.71875 -0.84375 3.5 -0.84375q3.40625 0 5.765625 2.484375q2.375 2.46875 2.375 6.421875q0 3.296875 -1.90625 5.890625q-2.609375 3.53125 -7.234375 3.53125q-3.703125 0 -6.046875 -1.984375q-2.328125 -1.984375 -2.78125 -5.34375zm21.775757 6.875l0 -5.125l5.125 0l0 5.125l-5.125 0zm9.386597 -6.171875l4.96875 -0.546875q0.171875 1.5 0.9375 2.234375q0.765625 0.734375 2.03125 0.734375q1.578125 0 2.6875 -1.453125q1.125 -1.46875 1.4375 -6.0625q-1.9375 2.25 -4.84375 2.25q-3.140625 0 -5.4375 -2.4375q-2.28125 -2.4375 -2.28125 -6.34375q0 -4.0625 2.40625 -6.546875q2.421875 -2.484375 6.15625 -2.484375q4.0625 0 6.671875 3.140625q2.609375 3.140625 2.609375 10.34375q0 7.328125 -2.71875 10.578125q-2.71875 3.234375 -7.078125 3.234375q-3.125 0 -5.0625 -1.65625q-1.9375 -1.671875 -2.484375 -4.984375zm11.59375 -11.203125q0 -2.46875 -1.140625 -3.828125q-1.125 -1.375 -2.625 -1.375q-1.421875 0 -2.359375 1.125q-0.9375 1.109375 -0.9375 3.65625q0 2.59375 1.015625 3.8125q1.015625 1.203125 2.546875 1.203125q1.484375 0 2.484375 -1.15625q1.015625 -1.171875 1.015625 -3.4375zm17.728882 -9.453125q3.875 0 6.0625 2.765625q2.609375 3.28125 2.609375 10.890625q0 7.578125 -2.625 10.890625q-2.171875 2.734375 -6.046875 2.734375q-3.90625 0 -6.296875 -3.0q-2.390625 -3.0 -2.390625 -10.6875q0 -7.546875 2.625 -10.859375q2.171875 -2.734375 6.0625 -2.734375zm0 4.25q-0.9375 0 -1.671875 0.59375q-0.71875 0.59375 -1.125 2.125q-0.53125 1.984375 -0.53125 6.6875q0 4.703125 0.46875 6.46875q0.484375 1.75 1.203125 2.328125q0.71875 0.578125 1.65625 0.578125q0.921875 0 1.640625 -0.578125q0.734375 -0.59375 1.140625 -2.125q0.53125 -1.96875 0.53125 -6.671875q0 -4.703125 -0.484375 -6.453125q-0.46875 -1.765625 -1.1875 -2.359375q-0.71875 -0.59375 -1.640625 -0.59375z" fill-rule="nonzero"/><path fill="#000000" d="m173.43349 660.60077l3.25 -0.5q0.28125 1.9375 1.515625 2.984375q1.25 1.03125 3.5 1.03125q2.265625 0 3.359375 -0.90625q1.09375 -0.921875 1.09375 -2.171875q0 -1.109375 -0.96875 -1.75q-0.671875 -0.4375 -3.359375 -1.109375q-3.609375 -0.90625 -5.0 -1.5625q-1.390625 -0.671875 -2.125 -1.84375q-0.71875 -1.1875 -0.71875 -2.609375q0 -1.296875 0.59375 -2.390625q0.59375 -1.109375 1.625 -1.84375q0.765625 -0.5625 2.078125 -0.953125q1.328125 -0.390625 2.84375 -0.390625q2.265625 0 3.984375 0.65625q1.734375 0.65625 2.546875 1.78125q0.828125 1.125 1.140625 3.0l-3.21875 0.4375q-0.21875 -1.5 -1.265625 -2.328125q-1.046875 -0.84375 -2.953125 -0.84375q-2.265625 0 -3.234375 0.75q-0.96875 0.734375 -0.96875 1.75q0 0.625 0.40625 1.140625q0.40625 0.53125 1.265625 0.875q0.484375 0.1875 2.890625 0.84375q3.484375 0.921875 4.859375 1.515625q1.375 0.59375 2.15625 1.734375q0.78125 1.125 0.78125 2.796875q0 1.640625 -0.953125 3.09375q-0.953125 1.453125 -2.765625 2.25q-1.796875 0.78125 -4.078125 0.78125q-3.765625 0 -5.75 -1.5625q-1.984375 -1.578125 -2.53125 -4.65625zm32.664062 5.78125l0 -2.84375q-2.25 3.28125 -6.140625 3.28125q-1.703125 0 -3.203125 -0.65625q-1.484375 -0.65625 -2.203125 -1.640625q-0.71875 -1.0 -1.0 -2.4375q-0.203125 -0.96875 -0.203125 -3.0625l0 -12.0l3.28125 0l0 10.734375q0 2.578125 0.203125 3.46875q0.296875 1.296875 1.296875 2.03125q1.015625 0.734375 2.484375 0.734375q1.484375 0 2.765625 -0.75q1.296875 -0.765625 1.828125 -2.0625q0.546875 -1.296875 0.546875 -3.78125l0 -10.375l3.28125 0l0 19.359375l-2.9375 0zm11.103882 0l-3.046875 0l0 -26.71875l3.28125 0l0 9.53125q2.078125 -2.609375 5.3125 -2.609375q1.78125 0 3.375 0.71875q1.59375 0.71875 2.625 2.03125q1.03125 1.296875 1.609375 3.140625q0.59375 1.84375 0.59375 3.9375q0 4.96875 -2.46875 7.6875q-2.453125 2.71875 -5.90625 2.71875q-3.421875 0 -5.375 -2.859375l0 2.421875zm-0.03125 -9.828125q0 3.484375 0.9375 5.03125q1.5625 2.53125 4.203125 2.53125q2.140625 0 3.703125 -1.859375q1.578125 -1.875 1.578125 -5.578125q0 -3.78125 -1.5 -5.578125q-1.5 -1.8125 -3.640625 -1.8125q-2.15625 0 -3.71875 1.875q-1.5625 1.859375 -1.5625 5.390625zm16.494507 1.8125l0 -3.296875l10.078125 0l0 3.296875l-10.078125 0zm12.383682 2.234375l3.25 -0.5q0.28125 1.9375 1.515625 2.984375q1.25 1.03125 3.5 1.03125q2.265625 0 3.359375 -0.90625q1.09375 -0.921875 1.09375 -2.171875q0 -1.109375 -0.96875 -1.75q-0.671875 -0.4375 -3.359375 -1.109375q-3.609375 -0.90625 -5.0 -1.5625q-1.390625 -0.671875 -2.125 -1.84375q-0.71875 -1.1875 -0.71875 -2.609375q0 -1.296875 0.59375 -2.390625q0.59375 -1.109375 1.625 -1.84375q0.765625 -0.5625 2.078125 -0.953125q1.328125 -0.390625 2.84375 -0.390625q2.265625 0 3.984375 0.65625q1.734375 0.65625 2.546875 1.78125q0.828125 1.125 1.140625 3.0l-3.21875 0.4375q-0.21875 -1.5 -1.265625 -2.328125q-1.046875 -0.84375 -2.953125 -0.84375q-2.265625 0 -3.234375 0.75q-0.96875 0.734375 -0.96875 1.75q0 0.625 0.40625 1.140625q0.40625 0.53125 1.265625 0.875q0.484375 0.1875 2.890625 0.84375q3.484375 0.921875 4.859375 1.515625q1.375 0.59375 2.15625 1.734375q0.78125 1.125 0.78125 2.796875q0 1.640625 -0.953125 3.09375q-0.953125 1.453125 -2.765625 2.25q-1.796875 0.78125 -4.078125 0.78125q-3.765625 0 -5.75 -1.5625q-1.984375 -1.578125 -2.53125 -4.65625zm32.617188 3.390625q-1.828125 1.546875 -3.515625 2.1875q-1.6875 0.640625 -3.609375 0.640625q-3.1875 0 -4.90625 -1.546875q-1.71875 -1.5625 -1.71875 -4.0q0 -1.421875 0.640625 -2.59375q0.65625 -1.171875 1.703125 -1.875q1.046875 -0.71875 2.359375 -1.078125q0.96875 -0.265625 2.921875 -0.5q3.96875 -0.46875 5.84375 -1.125q0.03125 -0.671875 0.03125 -0.859375q0 -2.0 -0.9375 -2.828125q-1.25 -1.109375 -3.734375 -1.109375q-2.3125 0 -3.421875 0.8125q-1.09375 0.8125 -1.625 2.875l-3.21875 -0.4375q0.4375 -2.0625 1.4375 -3.328125q1.015625 -1.265625 2.90625 -1.953125q1.890625 -0.6875 4.390625 -0.6875q2.484375 0 4.03125 0.59375q1.546875 0.578125 2.28125 1.46875q0.734375 0.875 1.015625 2.21875q0.171875 0.84375 0.171875 3.03125l0 4.375q0 4.578125 0.203125 5.796875q0.21875 1.203125 0.828125 2.3125l-3.421875 0q-0.515625 -1.015625 -0.65625 -2.390625zm-0.28125 -7.328125q-1.78125 0.734375 -5.359375 1.25q-2.015625 0.28125 -2.859375 0.65625q-0.828125 0.359375 -1.296875 1.0625q-0.453125 0.703125 -0.453125 1.5625q0 1.3125 0.984375 2.1875q1.0 0.875 2.921875 0.875q1.890625 0 3.359375 -0.828125q1.484375 -0.84375 2.1875 -2.28125q0.515625 -1.109375 0.515625 -3.28125l0 -1.203125zm8.400757 9.71875l0 -19.359375l2.9375 0l0 2.71875q0.921875 -1.421875 2.421875 -2.28125q1.515625 -0.875 3.453125 -0.875q2.15625 0 3.53125 0.890625q1.375 0.890625 1.9375 2.5q2.296875 -3.390625 5.96875 -3.390625q2.890625 0 4.4375 1.59375q1.546875 1.59375 1.546875 4.921875l0 13.28125l-3.265625 0l0 -12.1875q0 -1.96875 -0.328125 -2.828125q-0.3125 -0.875 -1.15625 -1.40625q-0.828125 -0.53125 -1.953125 -0.53125q-2.046875 0 -3.390625 1.359375q-1.34375 1.359375 -1.34375 4.34375l0 11.25l-3.28125 0l0 -12.578125q0 -2.1875 -0.8125 -3.28125q-0.796875 -1.09375 -2.625 -1.09375q-1.375 0 -2.5625 0.734375q-1.171875 0.71875 -1.703125 2.125q-0.53125 1.40625 -0.53125 4.046875l0 10.046875l-3.28125 0zm31.094635 7.421875l0 -26.78125l3.0 0l0 2.515625q1.046875 -1.46875 2.375 -2.203125q1.34375 -0.75 3.234375 -0.75q2.484375 0 4.375 1.28125q1.890625 1.265625 2.859375 3.59375q0.96875 2.328125 0.96875 5.09375q0 2.96875 -1.0625 5.359375q-1.0625 2.375 -3.109375 3.640625q-2.03125 1.265625 -4.265625 1.265625q-1.640625 0 -2.953125 -0.6875q-1.296875 -0.703125 -2.140625 -1.75l0 9.421875l-3.28125 0zm2.984375 -16.984375q0 3.734375 1.5 5.515625q1.515625 1.78125 3.671875 1.78125q2.1875 0 3.734375 -1.84375q1.5625 -1.84375 1.5625 -5.734375q0 -3.703125 -1.515625 -5.53125q-1.515625 -1.84375 -3.640625 -1.84375q-2.09375 0 -3.703125 1.953125q-1.609375 1.953125 -1.609375 5.703125zm17.713257 9.5625l0 -26.71875l3.28125 0l0 26.71875l-3.28125 0zm21.621216 -6.234375l3.375 0.421875q-0.796875 2.96875 -2.96875 4.609375q-2.15625 1.640625 -5.53125 1.640625q-4.25 0 -6.75 -2.609375q-2.484375 -2.625 -2.484375 -7.34375q0 -4.890625 2.515625 -7.578125q2.515625 -2.703125 6.53125 -2.703125q3.890625 0 6.34375 2.640625q2.453125 2.640625 2.453125 7.4375q0 0.296875 -0.015625 0.875l-14.4375 0q0.1875 3.1875 1.8125 4.890625q1.625 1.6875 4.046875 1.6875q1.796875 0 3.078125 -0.9375q1.28125 -0.953125 2.03125 -3.03125zm-10.78125 -5.296875l10.8125 0q-0.21875 -2.453125 -1.234375 -3.671875q-1.578125 -1.890625 -4.078125 -1.890625q-2.25 0 -3.796875 1.515625q-1.53125 1.5 -1.703125 4.046875z" fill-rule="nonzero"/><path fill="#000000" d="m419.9999 651.96014q-2.0 -0.828125 -2.90625 -2.296875q-0.890625 -1.46875 -0.890625 -3.21875q0 -2.984375 2.078125 -4.9375q2.09375 -1.953125 5.9375 -1.953125q3.8125 0 5.921875 1.953125q2.109375 1.953125 2.109375 4.9375q0 1.859375 -0.96875 3.3125q-0.96875 1.4375 -2.71875 2.203125q2.21875 0.890625 3.375 2.609375q1.15625 1.71875 1.15625 3.953125q0 3.703125 -2.359375 6.015625q-2.359375 2.3125 -6.28125 2.3125q-3.640625 0 -6.0625 -1.90625q-2.859375 -2.265625 -2.859375 -6.203125q0 -2.171875 1.0625 -3.984375q1.078125 -1.8125 3.40625 -2.796875zm1.046875 -5.15625q0 1.53125 0.859375 2.390625q0.875 0.859375 2.3125 0.859375q1.46875 0 2.34375 -0.859375q0.875 -0.875 0.875 -2.40625q0 -1.4375 -0.875 -2.296875q-0.859375 -0.875 -2.28125 -0.875q-1.484375 0 -2.359375 0.875q-0.875 0.875 -0.875 2.3125zm-0.46875 11.453125q0 2.109375 1.078125 3.296875q1.09375 1.1875 2.71875 1.1875q1.578125 0 2.609375 -1.140625q1.046875 -1.140625 1.046875 -3.296875q0 -1.875 -1.0625 -3.015625q-1.046875 -1.140625 -2.671875 -1.140625q-1.875 0 -2.796875 1.296875q-0.921875 1.296875 -0.921875 2.8125zm16.869507 8.125l0 -5.125l5.125 0l0 5.125l-5.125 0zm17.949097 -26.828125q3.875 0 6.0625 2.765625q2.609375 3.28125 2.609375 10.890625q0 7.578125 -2.625 10.890625q-2.171875 2.734375 -6.046875 2.734375q-3.90625 0 -6.296875 -3.0q-2.390625 -3.0 -2.390625 -10.6875q0 -7.546875 2.625 -10.859375q2.171875 -2.734375 6.0625 -2.734375zm0 4.25q-0.9375 0 -1.671875 0.59375q-0.71875 0.59375 -1.125 2.125q-0.53125 1.984375 -0.53125 6.6875q0 4.703125 0.46875 6.46875q0.484375 1.75 1.203125 2.328125q0.71875 0.578125 1.65625 0.578125q0.921875 0 1.640625 -0.578125q0.734375 -0.59375 1.140625 -2.125q0.53125 -1.96875 0.53125 -6.671875q0 -4.703125 -0.484375 -6.453125q-0.46875 -1.765625 -1.1875 -2.359375q-0.71875 -0.59375 -1.640625 -0.59375zm20.760132 -4.25q3.875 0 6.0625 2.765625q2.609375 3.28125 2.609375 10.890625q0 7.578125 -2.625 10.890625q-2.171875 2.734375 -6.046875 2.734375q-3.90625 0 -6.296875 -3.0q-2.390625 -3.0 -2.390625 -10.6875q0 -7.546875 2.625 -10.859375q2.171875 -2.734375 6.0625 -2.734375zm0 4.25q-0.9375 0 -1.671875 0.59375q-0.71875 0.59375 -1.125 2.125q-0.53125 1.984375 -0.53125 6.6875q0 4.703125 0.46875 6.46875q0.484375 1.75 1.203125 2.328125q0.71875 0.578125 1.65625 0.578125q0.921875 0 1.640625 -0.578125q0.734375 -0.59375 1.140625 -2.125q0.53125 -1.96875 0.53125 -6.671875q0 -4.703125 -0.484375 -6.453125q-0.46875 -1.765625 -1.1875 -2.359375q-0.71875 -0.59375 -1.640625 -0.59375z" fill-rule="nonzero"/><path fill="#000000" d="m578.5698 646.21014l-4.953125 0.546875q-0.1875 -1.53125 -0.953125 -2.265625q-0.765625 -0.734375 -1.984375 -0.734375q-1.625 0 -2.75 1.46875q-1.109375 1.453125 -1.40625 6.0625q1.90625 -2.265625 4.75 -2.265625q3.21875 0 5.5 2.453125q2.28125 2.4375 2.28125 6.296875q0 4.109375 -2.40625 6.59375q-2.390625 2.46875 -6.171875 2.46875q-4.046875 0 -6.65625 -3.140625q-2.609375 -3.140625 -2.609375 -10.3125q0 -7.34375 2.71875 -10.578125q2.71875 -3.25 7.0625 -3.25q3.046875 0 5.03125 1.703125q2.0 1.703125 2.546875 4.953125zm-11.609375 11.171875q0 2.5 1.140625 3.859375q1.15625 1.34375 2.625 1.34375q1.421875 0 2.375 -1.109375q0.953125 -1.109375 0.953125 -3.640625q0 -2.609375 -1.03125 -3.8125q-1.015625 -1.21875 -2.546875 -1.21875q-1.46875 0 -2.5 1.15625q-1.015625 1.15625 -1.015625 3.421875zm16.103882 9.0l0 -5.125l5.125 0l0 5.125l-5.125 0zm19.324097 0l0 -5.375l-10.9375 0l0 -4.484375l11.59375 -16.96875l4.3125 0l0 16.953125l3.3125 0l0 4.5l-3.3125 0l0 5.375l-4.96875 0zm0 -9.875l0 -9.140625l-6.140625 9.140625l6.140625 0zm19.385132 -16.953125q3.875 0 6.0625 2.765625q2.609375 3.28125 2.609375 10.890625q0 7.578125 -2.625 10.890625q-2.171875 2.734375 -6.046875 2.734375q-3.90625 0 -6.296875 -3.0q-2.390625 -3.0 -2.390625 -10.6875q0 -7.546875 2.625 -10.859375q2.171875 -2.734375 6.0625 -2.734375zm0 4.25q-0.9375 0 -1.671875 0.59375q-0.71875 0.59375 -1.125 2.125q-0.53125 1.984375 -0.53125 6.6875q0 4.703125 0.46875 6.46875q0.484375 1.75 1.203125 2.328125q0.71875 0.578125 1.65625 0.578125q0.921875 0 1.640625 -0.578125q0.734375 -0.59375 1.140625 -2.125q0.53125 -1.96875 0.53125 -6.671875q0 -4.703125 -0.484375 -6.453125q-0.46875 -1.765625 -1.1875 -2.359375q-0.71875 -0.59375 -1.640625 -0.59375z" fill-rule="nonzero"/><path fill="#000000" d="m724.18665 646.21014l-4.953125 0.546875q-0.1875 -1.53125 -0.953125 -2.265625q-0.765625 -0.734375 -1.984375 -0.734375q-1.625 0 -2.75 1.46875q-1.109375 1.453125 -1.40625 6.0625q1.90625 -2.265625 4.75 -2.265625q3.21875 0 5.5 2.453125q2.28125 2.4375 2.28125 6.296875q0 4.109375 -2.40625 6.59375q-2.390625 2.46875 -6.171875 2.46875q-4.046875 0 -6.65625 -3.140625q-2.609375 -3.140625 -2.609375 -10.3125q0 -7.34375 2.71875 -10.578125q2.71875 -3.25 7.0625 -3.25q3.046875 0 5.03125 1.703125q2.0 1.703125 2.546875 4.953125zm-11.609375 11.171875q0 2.5 1.140625 3.859375q1.15625 1.34375 2.625 1.34375q1.421875 0 2.375 -1.109375q0.953125 -1.109375 0.953125 -3.640625q0 -2.609375 -1.03125 -3.8125q-1.015625 -1.21875 -2.546875 -1.21875q-1.46875 0 -2.5 1.15625q-1.015625 1.15625 -1.015625 3.421875zm16.103882 9.0l0 -5.125l5.125 0l0 5.125l-5.125 0zm26.574097 -4.75l0 4.75l-17.953125 0q0.296875 -2.703125 1.75 -5.109375q1.46875 -2.421875 5.765625 -6.40625q3.46875 -3.234375 4.25 -4.375q1.0625 -1.59375 1.0625 -3.140625q0 -1.703125 -0.921875 -2.625q-0.921875 -0.921875 -2.546875 -0.921875q-1.609375 0 -2.5625 0.96875q-0.9375 0.953125 -1.078125 3.203125l-5.109375 -0.515625q0.453125 -4.21875 2.859375 -6.0625q2.40625 -1.84375 6.015625 -1.84375q3.953125 0 6.203125 2.140625q2.265625 2.125 2.265625 5.296875q0 1.796875 -0.640625 3.4375q-0.640625 1.625 -2.046875 3.40625q-0.9375 1.1875 -3.359375 3.421875q-2.421875 2.21875 -3.078125 2.953125q-0.640625 0.71875 -1.03125 1.421875l10.15625 0zm12.135132 -22.078125q3.875 0 6.0625 2.765625q2.609375 3.28125 2.609375 10.890625q0 7.578125 -2.625 10.890625q-2.171875 2.734375 -6.046875 2.734375q-3.90625 0 -6.296875 -3.0q-2.390625 -3.0 -2.390625 -10.6875q0 -7.546875 2.625 -10.859375q2.171875 -2.734375 6.0625 -2.734375zm0 4.25q-0.9375 0 -1.671875 0.59375q-0.71875 0.59375 -1.125 2.125q-0.53125 1.984375 -0.53125 6.6875q0 4.703125 0.46875 6.46875q0.484375 1.75 1.203125 2.328125q0.71875 0.578125 1.65625 0.578125q0.921875 0 1.640625 -0.578125q0.734375 -0.59375 1.140625 -2.125q0.53125 -1.96875 0.53125 -6.671875q0 -4.703125 -0.484375 -6.453125q-0.46875 -1.765625 -1.1875 -2.359375q-0.71875 -0.59375 -1.640625 -0.59375z" fill-rule="nonzero"/><path fill="#000000" d="m852.52216 659.507l5.109375 -0.53125q0.21875 1.734375 1.28125 2.75q1.078125 1.015625 2.484375 1.015625q1.609375 0 2.71875 -1.296875q1.109375 -1.3125 1.109375 -3.9375q0 -2.46875 -1.109375 -3.6875q-1.09375 -1.234375 -2.859375 -1.234375q-2.203125 0 -3.953125 1.953125l-4.15625 -0.609375l2.625 -13.90625l13.546875 0l0 4.796875l-9.671875 0l-0.796875 4.53125q1.71875 -0.84375 3.5 -0.84375q3.40625 0 5.765625 2.484375q2.375 2.46875 2.375 6.421875q0 3.296875 -1.90625 5.890625q-2.609375 3.53125 -7.234375 3.53125q-3.703125 0 -6.046875 -1.984375q-2.328125 -1.984375 -2.78125 -5.34375zm21.775757 6.875l0 -5.125l5.125 0l0 5.125l-5.125 0zm9.386597 -6.171875l4.96875 -0.546875q0.171875 1.5 0.9375 2.234375q0.765625 0.734375 2.03125 0.734375q1.578125 0 2.6875 -1.453125q1.125 -1.46875 1.4375 -6.0625q-1.9375 2.25 -4.84375 2.25q-3.140625 0 -5.4375 -2.4375q-2.28125 -2.4375 -2.28125 -6.34375q0 -4.0625 2.40625 -6.546875q2.421875 -2.484375 6.15625 -2.484375q4.0625 0 6.671875 3.140625q2.609375 3.140625 2.609375 10.34375q0 7.328125 -2.71875 10.578125q-2.71875 3.234375 -7.078125 3.234375q-3.125 0 -5.0625 -1.65625q-1.9375 -1.671875 -2.484375 -4.984375zm11.59375 -11.203125q0 -2.46875 -1.140625 -3.828125q-1.125 -1.375 -2.625 -1.375q-1.421875 0 -2.359375 1.125q-0.9375 1.109375 -0.9375 3.65625q0 2.59375 1.015625 3.8125q1.015625 1.203125 2.546875 1.203125q1.484375 0 2.484375 -1.15625q1.015625 -1.171875 1.015625 -3.4375zm17.728882 -9.453125q3.875 0 6.0625 2.765625q2.609375 3.28125 2.609375 10.890625q0 7.578125 -2.625 10.890625q-2.171875 2.734375 -6.046875 2.734375q-3.90625 0 -6.296875 -3.0q-2.390625 -3.0 -2.390625 -10.6875q0 -7.546875 2.625 -10.859375q2.171875 -2.734375 6.0625 -2.734375zm0 4.25q-0.9375 0 -1.671875 0.59375q-0.71875 0.59375 -1.125 2.125q-0.53125 1.984375 -0.53125 6.6875q0 4.703125 0.46875 6.46875q0.484375 1.75 1.203125 2.328125q0.71875 0.578125 1.65625 0.578125q0.921875 0 1.640625 -0.578125q0.734375 -0.59375 1.140625 -2.125q0.53125 -1.96875 0.53125 -6.671875q0 -4.703125 -0.484375 -6.453125q-0.46875 -1.765625 -1.1875 -2.359375q-0.71875 -0.59375 -1.640625 -0.59375z" fill-rule="nonzero"/></g></svg>